<?xml version="1.0" encoding="UTF-8"?>
<svg id="Layer_2" data-name="Layer 2" xmlns="http://www.w3.org/2000/svg" xmlns:xlink="http://www.w3.org/1999/xlink" viewBox="0 0 437.93 110.98">
  <defs>
    <style>
      .cls-1 {
        fill: url(#linear-gradient);
      }

      .cls-1, .cls-2, .cls-3, .cls-4, .cls-5, .cls-6, .cls-7, .cls-8, .cls-9 {
        stroke-width: 0px;
      }

      .cls-2 {
        fill: #010101;
      }

      .cls-3 {
        fill: url(#linear-gradient-5);
      }

      .cls-4 {
        fill: #fff;
      }

      .cls-5 {
        fill: url(#linear-gradient-2);
      }

      .cls-6 {
        fill: url(#radial-gradient-2);
      }

      .cls-7 {
        fill: url(#linear-gradient-3);
      }

      .cls-8 {
        fill: url(#radial-gradient);
      }

      .cls-9 {
        fill: url(#linear-gradient-4);
      }
    </style>
    <linearGradient id="linear-gradient" x1="5.94" y1="80.48" x2="59.89" y2="89.06" gradientUnits="userSpaceOnUse">
      <stop offset="0" stop-color="#94d9f4"/>
      <stop offset=".22" stop-color="#68a2d7"/>
      <stop offset=".87" stop-color="#243771"/>
    </linearGradient>
    <linearGradient id="linear-gradient-2" x1="30.2" y1="23.2" x2="62.56" y2="63.66" gradientUnits="userSpaceOnUse">
      <stop offset="0" stop-color="#94d9f4"/>
      <stop offset=".22" stop-color="#68a2d7"/>
      <stop offset=".88" stop-color="#243771"/>
    </linearGradient>
    <linearGradient id="linear-gradient-3" x1="99.75" y1="4.94" x2="81.05" y2="59.82" gradientUnits="userSpaceOnUse">
      <stop offset="0" stop-color="#94d9f4"/>
      <stop offset=".22" stop-color="#68a2d7"/>
      <stop offset=".84" stop-color="#243771"/>
    </linearGradient>
    <radialGradient id="radial-gradient" cx="-214.73" cy="246.53" fx="-214.73" fy="246.53" r="14.02" gradientTransform="translate(307.55 -301.98) rotate(-4.02) scale(1.21 1.52) skewX(2.93)" gradientUnits="userSpaceOnUse">
      <stop offset=".33" stop-color="#fff"/>
      <stop offset=".78" stop-color="#f4f3fa"/>
      <stop offset=".99" stop-color="#c2daf2"/>
    </radialGradient>
    <linearGradient id="linear-gradient-4" x1="-5.43" y1="118.84" x2="-23.04" y2="130.67" gradientTransform="translate(78.39 -46.25) rotate(-9.73) scale(1.09 1)" gradientUnits="userSpaceOnUse">
      <stop offset="0" stop-color="#fff" stop-opacity=".06"/>
      <stop offset="1" stop-color="#fff" stop-opacity=".71"/>
    </linearGradient>
    <radialGradient id="radial-gradient-2" cx="-215.27" cy="249.69" fx="-215.27" fy="256.49" r="8.19" gradientTransform="translate(303.75 -326.67) rotate(-4.02) scale(1.21 1.6) skewX(3.08)" gradientUnits="userSpaceOnUse">
      <stop offset=".19" stop-color="#64a0d6"/>
      <stop offset="1" stop-color="#160e3e"/>
    </radialGradient>
    <linearGradient id="linear-gradient-5" x1="95.76" y1="77.64" x2="87.64" y2="86.18" gradientUnits="userSpaceOnUse">
      <stop offset="0" stop-color="#fff" stop-opacity="0"/>
      <stop offset="1" stop-color="#fff" stop-opacity=".75"/>
    </linearGradient>
  </defs>
  <g id="Layer_1-2" data-name="Layer 1">
    <path class="cls-1" d="m26.1,77.24c-.79,0-1.44.64-1.44,1.43h0s-.02,14.85-.02,14.85c0,.79.64,1.44,1.43,1.44l20.75.03c.79,0,1.44-.64,1.44-1.43l.02-14.85c0-.79-.64-1.44-1.43-1.44l-20.75-.03Zm.77,4.43l2.17,1.59,3.2,2.72-5.39,5.29v-9.6Zm1.46,11.08l5.51-5.41.75.64c.5.43,1.16.66,1.86.66.7,0,1.37-.23,1.87-.66l.75-.64,5.49,5.42-16.24-.02Zm17.72-1.45l-5.37-5.3,5.39-4.3v9.6Zm-9.22-4.68c-.09.08-.23.12-.37.12-.15,0-.28-.04-.37-.12l-9.22-7.15,19.19.03-9.23,7.13Zm30.68,3.2c-5.33,4.57-11.22,8.58-17.78,11.08-6.56,2.49-13.84,3.4-20.67,1.77-6.74-1.61-12.74-5.62-17.51-10.64-4.78-5.01-8.42-11-11.54-17.18,3.76,1.19,7.86.88,11.69-.08,3.83-.95,7.47-2.52,11.19-3.86,7.94-2.86,16.74-4.65,24.78-2.08,7.67,2.44,13.65,8.55,18.16,15.21-4.14,3.51-9.88,5.05-15.22,4.08,1.96-.5,3.88-1.23,5.71-2.11,6.41-3.1-3.82-9.09-6.76-10.51-3.74-1.81-7.94-2.68-12.09-2.46-10.01.51-19.1,6.68-29.12,7,1.74,3.36,4.72,7.2,7.59,9.67,7.12,6.15,14.98,9.66,25.38,8.97,9.38-.62,18.84-3,26.2-8.86Z"/>
    <path class="cls-5" d="m43.53,45.01c.35.38.51.83.47,1.34-.04.52-.26.94-.65,1.29s-.84.5-1.34.47c-.51-.03-.93-.24-1.27-.63-.34-.43-.5-.88-.48-1.36.02-.48.23-.9.63-1.27s.85-.53,1.36-.48c.51.05.93.27,1.29.65Zm12.34.78c-.19-.08-.74-.34-1.63-.79-.89-.45-1.64-.79-2.22-1.01-.59-.23-1.08-.38-1.47-.46-.33-.03-.59.03-.77.18-.19.15-.31.37-.38.65-.07.29-.09.62-.08,1,.01.38.05.78.09,1.22.05.44.1.86.16,1.27.06.41.1.82.12,1.22.02.41.02.74-.02,1s-.14.48-.32.66c-.18.16-.64.16-1.37.01-.1-.02-.26-.04-.47-.09-.76-.16-1.26-.22-1.5-.19-.38.05-.52.27-.41.65.07.22.23.7.49,1.43.26.73.44,1.28.56,1.63l.26.3c.23.26.52.4.86.44.35.03.64-.07.89-.31l7.47-6.6c.26-.23.4-.51.42-.85.02-.34-.08-.65-.31-.92l-.38-.43Zm3.68,4.17l-9.34,8.24c-.79.68-1.69.99-2.71.93-1.02-.05-1.88-.47-2.56-1.25l-8.24-9.34c-.69-.78-1-1.68-.93-2.71.06-1.03.49-1.89,1.26-2.58l9.34-8.24c.77-.68,1.67-.98,2.7-.92,1.03.06,1.89.49,2.58,1.26l8.24,9.34c.68.77.98,1.67.92,2.7-.06,1.03-.48,1.89-1.25,2.56Zm-1.23-2.72c.02-.34-.08-.64-.31-.9l-8.24-9.34c-.21-.26-.49-.4-.85-.42-.36-.02-.66.08-.91.3l-9.34,8.24c-.26.25-.4.54-.42.88-.02.34.08.64.31.9l8.24,9.34c.22.27.5.41.85.42.35.01.65-.1.91-.32l9.34-8.24c.26-.23.4-.51.42-.85Zm11.54,17.18c1.35-7.93,1.24-16.48-2.62-23.54-4.04-7.41-11.64-12.19-19.35-15.62-3.61-1.6-7.33-2.98-10.76-4.94-3.43-1.96-6.61-4.56-8.5-8.02-2.01,6.63-3.52,13.47-3.53,20.4,0,6.93,1.56,13.97,5.31,19.79,3.81,5.9,9.7,10.27,16.16,13,6.47,2.73,13.5,3.9,20.51,4.28-9.37-.85-17.85-5.66-25.06-11.7-7.99-6.69-11.25-14.66-12.15-24.02-.36-3.77.14-8.6,1.2-12.24,7.46,6.69,18.3,8.52,25.88,15.06,3.15,2.71,5.58,6.25,7.04,10.14,1.14,3.05,4.4,14.45-2.38,12.26-1.93-.62-3.82-1.43-5.58-2.42,3.19,4.39,8.4,7.25,13.82,7.57Z"/>
    <path class="cls-7" d="m84.52,33.62c.12-.4.54-.62.94-.5l8.17,2.45c.4.12.62.54.5.94-.12.4-.54.62-.94.5l-8.17-2.45c-.4-.12-.62-.54-.5-.94Zm-.07,2.86l8.17,2.45c.4.12.82-.11.94-.51.12-.4-.11-.82-.5-.94l-8.17-2.45c-.4-.12-.82.11-.94.5-.12.4.11.82.5.94Zm8.53,3.87c.12-.4-.11-.82-.5-.94l-8.17-2.45c-.4-.12-.82.11-.94.5-.12.4.11.82.5.94l8.17,2.45c.4.12.82-.11.94-.5Zm-1.38,6.2l-9.85-2.96c-1.94-.58-3.04-2.63-2.46-4.57l4.43-14.77c.58-1.94,2.63-3.04,4.57-2.46l4.98,1.5.05.03c.07.03.13.07.19.11l.08.06c.11.1.19.2.25.31l5.24,9.73v.03c.03.08.05.16.07.25v.04s0,.07,0,.07c0,.07,0,.14-.01.22v.04s-.03.1-.03.1l-2.95,9.82c-.58,1.94-2.63,3.04-4.57,2.46Zm-9.22-5.07l9.85,2.96c.78.23,1.6-.21,1.83-.98h0s2.63-8.77,2.63-8.77l-3.9-1.17c-1.94-.58-3.04-2.63-2.46-4.57l1.17-3.9-3.84-1.15c-.78-.23-1.6.21-1.83.98l-4.43,14.77c-.23.78.21,1.6.98,1.83Zm24.12-18.26c-.65-3.89-1.54-7.76-1.8-11.7-.25-3.94.17-8.03,2.02-11.52-6.64,1.97-13.19,4.48-18.97,8.28-5.79,3.8-10.81,8.99-13.6,15.33-2.83,6.42-3.24,13.75-1.96,20.65s4.17,13.42,7.71,19.48c-4.44-8.29-5.1-18.02-4.02-27.36,1.19-10.35,6.05-17.46,13.37-23.36,2.95-2.38,7.26-4.62,10.88-5.73-1.48,9.91,2.96,19.96,1.67,29.9-.53,4.12-2.14,8.1-4.59,11.45-1.92,2.64-9.65,11.63-11.55,4.77-.54-1.95-.91-3.97-1.05-5.99-1.91,5.08-1.43,11,1.29,15.7,7.37-3.24,14.44-8.04,18.22-15.14,3.96-7.46,3.78-16.43,2.39-24.75Z"/>
    <g>
      <ellipse class="cls-2" cx="88.02" cy="88.5" rx="17.4" ry="24.3" transform="translate(-34.02 62.29) rotate(-33.03)"/>
      <ellipse class="cls-8" cx="88.17" cy="87.83" rx="17.3" ry="24.16" transform="translate(-33.62 62.26) rotate(-33.03)"/>
      <path class="cls-9" d="m95.28,85.95c2.53-1.26,4.94-2.76,7.24-4.42.35-.26.72-.53.91-.92.58-1.15-1.23-3.07-1.8-3.97-.14-.23-.27-.48-.45-.69-8.41-10.16-20.27-13.15-26.5-6.68-4.42,4.59-4.81,12.71-1.66,20.67,6.53,1.1,13.31-.18,19.37-2.68.97-.4,1.93-.84,2.88-1.31Z"/>
      <ellipse class="cls-6" cx="93.15" cy="84.36" rx="7.35" ry="10.26" transform="translate(-30.93 64.41) rotate(-33.03)"/>
      <path class="cls-3" d="m98.78,81c-2.45-3.76-6.62-5.39-9.31-3.64-2.69,1.75-2.89,6.22-.45,9.99.1.15.2.29.3.43,5.92-2.44,9.65-6.45,9.65-6.45,0,0-.13-.22-.19-.32Z"/>
      <ellipse class="cls-4" cx="89.43" cy="90.51" rx="2.55" ry="3.44" transform="translate(-37.69 85.07) rotate(-42.89)"/>
    </g>
    <g>
      <g>
        <path class="cls-2" d="m133.44,72.84h15.15v8.93h-26.71v-47.47h11.56v38.55Z"/>
        <path class="cls-2" d="m191.39,44.03v37.73h-11.56v-5.14c-1.17,1.67-2.76,3.01-4.77,4.02-2.01,1.01-4.23,1.52-6.66,1.52-2.89,0-5.43-.64-7.64-1.93-2.21-1.29-3.92-3.14-5.14-5.58s-1.83-5.3-1.83-8.59v-22.04h11.5v20.49c0,2.52.65,4.49,1.96,5.88,1.31,1.4,3.06,2.1,5.27,2.1s4.03-.7,5.34-2.1c1.31-1.4,1.96-3.36,1.96-5.88v-20.49h11.56Z"/>
        <path class="cls-2" d="m259.05,47.88c2.77,2.84,4.16,6.79,4.16,11.83v22.04h-11.5v-20.49c0-2.43-.64-4.32-1.93-5.65-1.29-1.33-3.05-2-5.31-2s-4.02.67-5.31,2c-1.28,1.33-1.93,3.21-1.93,5.65v20.49h-11.5v-20.49c0-2.43-.64-4.32-1.93-5.65-1.29-1.33-3.05-2-5.31-2s-4.02.67-5.31,2c-1.29,1.33-1.93,3.21-1.93,5.65v20.49h-11.56v-37.73h11.56v4.73c1.17-1.58,2.7-2.83,4.6-3.75,1.89-.92,4.03-1.39,6.42-1.39,2.84,0,5.38.61,7.61,1.83s3.98,2.95,5.24,5.21c1.31-2.07,3.09-3.76,5.34-5.07,2.25-1.31,4.71-1.96,7.37-1.96,4.69,0,8.42,1.42,11.19,4.26Z"/>
        <path class="cls-2" d="m306.69,65.67h-26.17c.18,2.34.93,4.14,2.26,5.38,1.33,1.24,2.96,1.86,4.9,1.86,2.88,0,4.89-1.22,6.02-3.65h12.31c-.63,2.48-1.77,4.71-3.42,6.69-1.65,1.98-3.71,3.54-6.19,4.67s-5.25,1.69-8.32,1.69c-3.7,0-6.99-.79-9.87-2.37-2.89-1.58-5.14-3.83-6.76-6.76-1.62-2.93-2.43-6.36-2.43-10.28s.8-7.35,2.4-10.28c1.6-2.93,3.84-5.18,6.73-6.76,2.88-1.58,6.2-2.37,9.94-2.37s6.9.77,9.74,2.3c2.84,1.53,5.06,3.72,6.66,6.56,1.6,2.84,2.4,6.15,2.4,9.94,0,1.08-.07,2.21-.2,3.38Zm-11.63-6.42c0-1.98-.68-3.56-2.03-4.73-1.35-1.17-3.04-1.76-5.07-1.76s-3.57.56-4.9,1.69c-1.33,1.13-2.15,2.73-2.47,4.8h14.47Z"/>
        <path class="cls-2" d="m346.55,47.92c2.64,2.86,3.96,6.8,3.96,11.8v22.04h-11.5v-20.49c0-2.52-.65-4.49-1.96-5.88-1.31-1.4-3.07-2.1-5.27-2.1s-3.97.7-5.28,2.1c-1.31,1.4-1.96,3.36-1.96,5.88v20.49h-11.56v-37.73h11.56v5c1.17-1.67,2.75-2.99,4.73-3.96,1.98-.97,4.21-1.45,6.7-1.45,4.42,0,7.95,1.43,10.58,4.29Z"/>
        <path class="cls-2" d="m402.44,73.38h-17.72l-2.84,8.38h-12.1l17.18-47.47h13.39l17.18,47.47h-12.24l-2.84-8.38Zm-2.98-8.93l-5.88-17.38-5.82,17.38h11.7Z"/>
        <path class="cls-2" d="m434.29,34.29v47.47h-11.56v-47.47h11.56Z"/>
      </g>
      <g>
        <path class="cls-2" d="m127.47,95.79v.8h-2.27v6.76h-1.09v-6.76h-2.28v-.8h5.63Z"/>
        <path class="cls-2" d="m130.7,97.58c.35-.19.79-.28,1.29-.28v1.02h-.29c-1.22,0-1.83.6-1.83,1.8v3.23h-1.09v-5.94h1.09v.97c.19-.34.46-.6.82-.79Z"/>
        <path class="cls-2" d="m133.25,98.76c.27-.46.64-.82,1.12-1.07.47-.25,1-.38,1.58-.38s1.07.11,1.49.34c.42.22.74.51.94.85v-1.08h1.1v5.94h-1.1v-1.11c-.21.35-.54.63-.96.86s-.92.34-1.49.34-1.11-.13-1.57-.39c-.47-.26-.84-.62-1.11-1.1-.27-.47-.41-1-.41-1.6s.13-1.14.41-1.6Zm4.83.44c-.2-.33-.47-.59-.81-.76-.34-.18-.71-.27-1.12-.27s-.78.09-1.11.26c-.33.17-.6.43-.8.76-.2.33-.3.72-.3,1.17s.1.85.3,1.19c.2.34.46.59.8.77.33.18.7.27,1.11.27s.78-.09,1.12-.27c.34-.18.61-.43.81-.77s.3-.73.3-1.18-.1-.84-.3-1.17Z"/>
        <path class="cls-2" d="m146.43,97.96c.49.44.74,1.07.74,1.89v3.5h-1.07v-3.36c0-.59-.16-1.05-.49-1.36-.33-.31-.77-.47-1.34-.47s-1.03.16-1.37.49c-.34.33-.51.8-.51,1.42v3.29h-1.09v-5.94h1.09v.85c.21-.3.51-.54.88-.7.37-.17.78-.25,1.22-.25.79,0,1.44.22,1.93.66Z"/>
        <path class="cls-2" d="m149.92,103.22c-.4-.16-.71-.37-.94-.65s-.36-.6-.38-.96h1.12c.03.3.19.54.46.73.27.19.63.28,1.08.28.41,0,.74-.08.98-.25.24-.17.36-.38.36-.63s-.13-.45-.38-.58c-.25-.13-.65-.25-1.18-.37-.48-.12-.88-.23-1.19-.35s-.57-.3-.79-.53-.33-.54-.33-.93c0-.3.1-.58.3-.83.2-.25.48-.45.85-.6.37-.15.78-.22,1.25-.22.72,0,1.31.17,1.75.5.45.33.68.79.72,1.37h-1.09c-.02-.31-.16-.56-.41-.75-.25-.19-.59-.28-1.01-.28-.39,0-.7.08-.93.23-.23.15-.35.35-.35.6,0,.2.07.36.21.48.14.13.31.23.52.3.21.08.5.16.88.25.47.12.85.23,1.15.34.29.11.55.28.76.5.21.22.32.52.33.88,0,.33-.1.62-.3.88-.2.26-.48.46-.84.61-.36.15-.78.22-1.25.22-.5,0-.95-.08-1.35-.23Z"/>
        <path class="cls-2" d="m157.84,98.22h-1.37v5.13h-1.09v-5.13h-.85v-.81h.85v-.42c0-.67.19-1.15.57-1.46.38-.31.98-.46,1.82-.46v.82c-.48,0-.81.09-1.01.25-.2.17-.29.45-.29.84v.42h1.37v.81Z"/>
        <path class="cls-2" d="m160.29,103.07c-.5-.25-.89-.61-1.17-1.08-.28-.47-.42-1.01-.42-1.62s.15-1.14.44-1.61c.29-.47.69-.82,1.19-1.07.5-.25,1.06-.37,1.68-.37s1.18.12,1.68.37c.5.25.9.61,1.19,1.07.29.46.44,1,.44,1.62s-.15,1.16-.45,1.62c-.3.47-.7.83-1.21,1.08-.51.25-1.07.38-1.69.38s-1.17-.13-1.66-.38Zm2.76-.74c.34-.17.62-.42.83-.75.21-.33.32-.74.32-1.21s-.1-.88-.31-1.21c-.21-.33-.48-.58-.81-.74-.33-.16-.7-.24-1.09-.24s-.76.08-1.09.24c-.33.16-.59.41-.79.74-.2.33-.3.74-.3,1.21s.1.89.29,1.23.46.58.78.74c.33.16.68.24,1.07.24s.76-.08,1.1-.25Z"/>
        <path class="cls-2" d="m168.64,97.58c.35-.19.79-.28,1.29-.28v1.02h-.29c-1.22,0-1.83.6-1.83,1.8v3.23h-1.09v-5.94h1.09v.97c.19-.34.46-.6.82-.79Z"/>
        <path class="cls-2" d="m180.41,97.59c.4.19.71.48.94.86.23.38.35.85.35,1.4v3.5h-1.07v-3.36c0-.59-.16-1.05-.48-1.36-.32-.31-.76-.47-1.31-.47s-1.01.17-1.35.49-.5.8-.5,1.43v3.28h-1.07v-3.36c0-.59-.16-1.05-.48-1.36s-.76-.47-1.31-.47-1.01.17-1.35.49-.5.8-.5,1.43v3.28h-1.09v-5.94h1.09v.86c.21-.31.5-.55.86-.72.36-.17.76-.25,1.2-.25.55,0,1.03.11,1.46.34.42.22.74.55.94.99.18-.42.48-.74.91-.98.42-.23.89-.35,1.41-.35s.96.1,1.36.29Z"/>
        <path class="cls-2" d="m183.51,96.25c-.14-.13-.21-.29-.21-.48s.07-.35.21-.48c.14-.13.32-.2.52-.2s.37.06.51.2c.14.13.21.29.21.48s-.07.35-.21.48-.31.2-.51.2-.38-.07-.52-.2Zm1.05,1.16v5.94h-1.09v-5.94h1.09Z"/>
        <path class="cls-2" d="m191.53,97.96c.49.44.74,1.07.74,1.89v3.5h-1.07v-3.36c0-.59-.16-1.05-.49-1.36-.33-.31-.77-.47-1.34-.47s-1.03.16-1.37.49c-.34.33-.51.8-.51,1.42v3.29h-1.09v-5.94h1.09v.85c.21-.3.51-.54.88-.7.37-.17.78-.25,1.22-.25.79,0,1.44.22,1.93.66Z"/>
        <path class="cls-2" d="m198.23,97.65c.43.22.74.51.95.85v-1.08h1.1v6.07c0,.54-.13,1.03-.38,1.45-.25.42-.62.75-1.09.99s-1.02.36-1.65.36c-.86,0-1.57-.18-2.15-.55-.57-.37-.91-.87-1.01-1.51h1.07c.12.36.37.65.74.87.37.22.82.33,1.35.33.6,0,1.08-.17,1.46-.51.38-.34.57-.82.57-1.43v-1.25c-.21.35-.53.64-.95.87-.42.23-.91.35-1.48.35s-1.11-.13-1.58-.39c-.47-.26-.85-.62-1.12-1.1-.27-.47-.41-1-.41-1.6s.13-1.14.41-1.6.64-.82,1.12-1.07c.47-.25,1-.38,1.58-.38s1.06.11,1.49.34Zm.65,1.55c-.2-.33-.47-.59-.81-.76-.34-.18-.71-.27-1.12-.27s-.78.09-1.11.26c-.33.17-.6.43-.8.76-.2.33-.3.72-.3,1.17s.1.85.3,1.19c.2.34.46.59.8.77.33.18.7.27,1.11.27s.78-.09,1.12-.27c.34-.18.61-.43.81-.77s.3-.73.3-1.18-.1-.84-.3-1.17Z"/>
        <path class="cls-2" d="m210.24,96.25c.66.31,1.17.75,1.53,1.32.35.57.53,1.24.53,2.02s-.18,1.44-.53,2.01c-.35.57-.86,1-1.53,1.3s-1.45.45-2.36.45h-2.59v-7.56h2.59c.91,0,1.69.15,2.36.46Zm.1,5.51c.56-.52.85-1.24.85-2.17s-.28-1.67-.85-2.2c-.57-.53-1.39-.79-2.45-.79h-1.5v5.94h1.5c1.07,0,1.89-.26,2.46-.78Z"/>
        <path class="cls-2" d="m214.92,103.07c-.5-.25-.89-.61-1.17-1.08-.28-.47-.42-1.01-.42-1.62s.15-1.14.44-1.61c.29-.47.69-.82,1.19-1.07.5-.25,1.06-.37,1.68-.37s1.18.12,1.68.37c.5.25.9.61,1.19,1.07.29.46.44,1,.44,1.62s-.15,1.16-.45,1.62c-.3.47-.7.83-1.21,1.08-.51.25-1.07.38-1.69.38s-1.17-.13-1.66-.38Zm2.76-.74c.34-.17.62-.42.83-.75.21-.33.32-.74.32-1.21s-.1-.88-.31-1.21c-.21-.33-.48-.58-.81-.74-.33-.16-.7-.24-1.09-.24s-.76.08-1.09.24c-.33.16-.59.41-.79.74-.2.33-.3.74-.3,1.21s.1.89.29,1.23.46.58.78.74c.33.16.68.24,1.07.24s.76-.08,1.1-.25Z"/>
        <path class="cls-2" d="m221.36,98.76c.27-.46.65-.82,1.13-1.07.48-.25,1.03-.38,1.65-.38.8,0,1.47.18,1.99.53.52.35.86.85,1.03,1.48h-1.17c-.11-.36-.33-.65-.65-.86-.32-.21-.72-.31-1.2-.31-.62,0-1.12.19-1.5.58-.38.39-.57.93-.57,1.64s.19,1.27.57,1.66c.38.39.88.59,1.5.59.48,0,.87-.1,1.19-.3.32-.2.54-.49.66-.87h1.17c-.17.61-.52,1.09-1.05,1.46s-1.18.55-1.97.55c-.62,0-1.17-.13-1.65-.38-.48-.25-.86-.61-1.13-1.07s-.41-1-.41-1.63.13-1.15.41-1.61Z"/>
        <path class="cls-2" d="m234.4,97.41v5.94h-1.09v-.88c-.21.3-.5.54-.86.71-.37.17-.78.25-1.22.25-.51,0-.97-.1-1.37-.29-.41-.19-.73-.48-.96-.86-.23-.38-.35-.85-.35-1.4v-3.48h1.07v3.35c0,.58.16,1.04.49,1.35.33.31.77.47,1.34.47s1.04-.16,1.37-.49.5-.8.5-1.42v-3.26h1.09Z"/>
        <path class="cls-2" d="m245.46,97.59c.4.19.71.48.94.86.23.38.35.85.35,1.4v3.5h-1.07v-3.36c0-.59-.16-1.05-.48-1.36s-.76-.47-1.31-.47-1.01.17-1.35.49-.5.8-.5,1.43v3.28h-1.07v-3.36c0-.59-.16-1.05-.48-1.36-.32-.31-.76-.47-1.31-.47s-1.01.17-1.35.49-.5.8-.5,1.43v3.28h-1.08v-5.94h1.08v.86c.21-.31.5-.55.87-.72.36-.17.76-.25,1.2-.25.55,0,1.03.11,1.46.34.42.22.74.55.94.99.18-.42.49-.74.91-.98.42-.23.89-.35,1.41-.35s.96.1,1.36.29Z"/>
        <path class="cls-2" d="m254.46,100.75h-5.23c.04.58.26,1.04.66,1.37.4.33.89.49,1.46.49.47,0,.86-.1,1.17-.3.31-.2.54-.46.66-.8h1.17c-.17.57-.52,1.04-1.05,1.39-.52.36-1.18.54-1.96.54-.62,0-1.17-.13-1.66-.38-.49-.25-.87-.61-1.15-1.08-.28-.47-.42-1.01-.42-1.62s.14-1.15.41-1.62c.27-.46.65-.82,1.14-1.07.49-.25,1.05-.37,1.69-.37s1.17.12,1.65.37c.48.25.84.58,1.1,1.01.26.43.39.92.39,1.46,0,.19-.01.39-.04.6Zm-1.36-1.77c-.18-.27-.43-.48-.75-.62-.31-.14-.66-.21-1.04-.21-.55,0-1.02.16-1.4.48-.39.32-.61.76-.66,1.32h4.13c0-.38-.09-.7-.27-.97Z"/>
        <path class="cls-2" d="m261.04,97.96c.49.44.74,1.07.74,1.89v3.5h-1.07v-3.36c0-.59-.16-1.05-.49-1.36s-.77-.47-1.34-.47-1.03.16-1.37.49c-.34.33-.51.8-.51,1.42v3.29h-1.08v-5.94h1.08v.85c.21-.3.51-.54.88-.7.37-.17.78-.25,1.22-.25.8,0,1.44.22,1.93.66Z"/>
        <path class="cls-2" d="m264.88,98.22v3.5c0,.29.07.49.2.61.14.12.37.18.7.18h.8v.83h-.98c-.6,0-1.06-.13-1.36-.38-.3-.25-.45-.67-.45-1.25v-3.5h-.85v-.81h.85v-1.5h1.09v1.5h1.71v.81h-1.71Z"/>
        <path class="cls-2" d="m268.87,103.22c-.4-.16-.71-.37-.94-.65s-.36-.6-.38-.96h1.12c.03.3.19.54.46.73.27.19.63.28,1.08.28.41,0,.74-.08.98-.25.24-.17.36-.38.36-.63s-.13-.45-.38-.58c-.25-.13-.65-.25-1.18-.37-.49-.12-.88-.23-1.19-.35-.31-.12-.57-.3-.79-.53s-.33-.54-.33-.93c0-.3.1-.58.3-.83.2-.25.48-.45.85-.6.37-.15.78-.22,1.25-.22.72,0,1.31.17,1.75.5.45.33.68.79.72,1.37h-1.09c-.02-.31-.16-.56-.41-.75-.25-.19-.59-.28-1.01-.28-.39,0-.7.08-.93.23-.23.15-.35.35-.35.6,0,.2.07.36.21.48.14.13.31.23.52.3.21.08.5.16.88.25.47.12.85.23,1.15.34.29.11.55.28.76.5.21.22.32.52.33.88,0,.33-.1.62-.3.88-.2.26-.48.46-.84.61-.36.15-.78.22-1.25.22-.5,0-.95-.08-1.35-.23Z"/>
        <path class="cls-2" d="m277.35,96.25c-.14-.13-.21-.29-.21-.48s.07-.35.21-.48c.14-.13.32-.2.53-.2s.37.06.51.2c.14.13.21.29.21.48s-.07.35-.21.48c-.14.13-.31.2-.51.2s-.38-.07-.53-.2Zm1.05,1.16v5.94h-1.08v-5.94h1.08Z"/>
        <path class="cls-2" d="m285.37,97.96c.49.44.74,1.07.74,1.89v3.5h-1.07v-3.36c0-.59-.16-1.05-.49-1.36s-.77-.47-1.34-.47-1.03.16-1.37.49c-.34.33-.51.8-.51,1.42v3.29h-1.08v-5.94h1.08v.85c.21-.3.51-.54.88-.7.37-.17.78-.25,1.22-.25.8,0,1.44.22,1.93.66Z"/>
        <path class="cls-2" d="m289.21,98.22v3.5c0,.29.07.49.2.61.14.12.37.18.7.18h.8v.83h-.98c-.6,0-1.06-.13-1.36-.38-.3-.25-.45-.67-.45-1.25v-3.5h-.85v-.81h.85v-1.5h1.09v1.5h1.71v.81h-1.71Z"/>
        <path class="cls-2" d="m293.41,103.07c-.5-.25-.89-.61-1.17-1.08-.28-.47-.42-1.01-.42-1.62s.15-1.14.44-1.61c.29-.47.69-.82,1.19-1.07.5-.25,1.06-.37,1.68-.37s1.18.12,1.68.37c.5.25.9.61,1.19,1.07.29.46.44,1,.44,1.62s-.15,1.16-.45,1.62c-.3.47-.7.83-1.21,1.08-.51.25-1.07.38-1.69.38s-1.17-.13-1.66-.38Zm2.76-.74c.34-.17.62-.42.83-.75.21-.33.32-.74.32-1.21s-.1-.88-.31-1.21c-.21-.33-.48-.58-.81-.74-.33-.16-.7-.24-1.09-.24s-.76.08-1.09.24c-.33.16-.59.41-.79.74-.2.33-.3.74-.3,1.21s.1.89.29,1.23c.19.33.46.58.78.74.33.16.68.24,1.07.24s.76-.08,1.1-.25Z"/>
        <path class="cls-2" d="m307.96,101.67h-3.63l-.67,1.68h-1.15l3.01-7.52h1.25l2.99,7.52h-1.14l-.67-1.68Zm-.31-.8l-1.5-3.82-1.5,3.82h3.01Z"/>
        <path class="cls-2" d="m311.09,98.76c.27-.46.65-.82,1.13-1.07s1.03-.38,1.65-.38c.8,0,1.46.18,1.99.53.52.35.87.85,1.03,1.48h-1.17c-.11-.36-.33-.65-.65-.86-.32-.21-.72-.31-1.2-.31-.62,0-1.12.19-1.5.58s-.57.93-.57,1.64.19,1.27.57,1.66.88.59,1.5.59c.48,0,.88-.1,1.19-.3.32-.2.54-.49.66-.87h1.17c-.18.61-.53,1.09-1.05,1.46-.53.37-1.18.55-1.97.55-.62,0-1.17-.13-1.65-.38-.48-.25-.86-.61-1.13-1.07-.27-.46-.41-1-.41-1.63s.14-1.15.41-1.61Z"/>
        <path class="cls-2" d="m319.65,98.22v3.5c0,.29.07.49.2.61.14.12.37.18.7.18h.8v.83h-.98c-.6,0-1.06-.13-1.36-.38-.3-.25-.45-.67-.45-1.25v-3.5h-.85v-.81h.85v-1.5h1.09v1.5h1.71v.81h-1.71Z"/>
        <path class="cls-2" d="m322.71,96.25c-.14-.13-.21-.29-.21-.48s.07-.35.21-.48c.14-.13.32-.2.53-.2s.37.06.51.2c.14.13.21.29.21.48s-.07.35-.21.48c-.14.13-.31.2-.51.2s-.38-.07-.53-.2Zm1.05,1.16v5.94h-1.08v-5.94h1.08Z"/>
        <path class="cls-2" d="m326.79,103.07c-.5-.25-.89-.61-1.17-1.08-.28-.47-.42-1.01-.42-1.62s.15-1.14.44-1.61c.29-.47.69-.82,1.19-1.07.5-.25,1.06-.37,1.68-.37s1.18.12,1.68.37c.5.25.9.61,1.19,1.07.29.46.44,1,.44,1.62s-.15,1.16-.45,1.62c-.3.47-.7.83-1.21,1.08-.51.25-1.07.38-1.69.38s-1.17-.13-1.66-.38Zm2.76-.74c.34-.17.62-.42.83-.75.21-.33.32-.74.32-1.21s-.1-.88-.31-1.21c-.21-.33-.48-.58-.81-.74-.33-.16-.7-.24-1.09-.24s-.76.08-1.09.24c-.33.16-.59.41-.79.74-.2.33-.3.74-.3,1.21s.1.89.29,1.23c.19.33.46.58.78.74.33.16.68.24,1.07.24s.76-.08,1.1-.25Z"/>
        <path class="cls-2" d="m338.36,97.96c.49.44.74,1.07.74,1.89v3.5h-1.07v-3.36c0-.59-.16-1.05-.49-1.36s-.77-.47-1.34-.47-1.03.16-1.37.49c-.34.33-.51.8-.51,1.42v3.29h-1.08v-5.94h1.08v.85c.21-.3.51-.54.88-.7.37-.17.78-.25,1.22-.25.8,0,1.44.22,1.93.66Z"/>
        <path class="cls-2" d="m340.87,98.76c.27-.46.64-.82,1.12-1.07.47-.25,1-.38,1.58-.38s1.07.11,1.49.34c.42.22.74.51.94.85v-1.08h1.1v5.94h-1.1v-1.11c-.21.35-.54.63-.96.86s-.92.34-1.49.34-1.11-.13-1.57-.39c-.47-.26-.84-.62-1.11-1.1-.27-.47-.41-1-.41-1.6s.14-1.14.41-1.6Zm4.83.44c-.2-.33-.47-.59-.8-.76-.34-.18-.71-.27-1.12-.27s-.78.09-1.11.26-.6.43-.8.76c-.2.33-.3.72-.3,1.17s.1.85.3,1.19c.2.34.46.59.8.77.33.18.7.27,1.11.27s.78-.09,1.12-.27c.34-.18.61-.43.8-.77s.3-.73.3-1.18-.1-.84-.3-1.17Z"/>
        <path class="cls-2" d="m351,97.65c.43-.22.92-.34,1.47-.34.59,0,1.12.13,1.59.38.47.25.84.61,1.11,1.07s.41.99.41,1.6-.14,1.13-.41,1.6c-.27.47-.64.84-1.12,1.1-.47.26-1,.39-1.58.39s-1.06-.11-1.49-.34c-.43-.22-.75-.51-.96-.86v1.1h-1.08v-8.03h1.08v3.19c.22-.35.55-.64.98-.87Zm3.16,1.54c-.2-.33-.47-.59-.8-.76-.34-.17-.71-.26-1.12-.26s-.76.09-1.1.27c-.34.18-.61.43-.81.77-.2.34-.3.72-.3,1.17s.1.84.3,1.18c.2.34.47.59.81.77.34.18.71.27,1.1.27s.78-.09,1.12-.27c.34-.18.61-.43.8-.77.2-.34.3-.73.3-1.19s-.1-.84-.3-1.17Z"/>
        <path class="cls-2" d="m358.09,95.33v8.03h-1.08v-8.03h1.08Z"/>
        <path class="cls-2" d="m365.87,100.75h-5.23c.04.58.26,1.04.66,1.37.4.33.89.49,1.46.49.47,0,.86-.1,1.17-.3.31-.2.54-.46.66-.8h1.17c-.17.57-.52,1.04-1.05,1.39-.52.36-1.18.54-1.96.54-.62,0-1.17-.13-1.66-.38-.49-.25-.87-.61-1.15-1.08-.28-.47-.42-1.01-.42-1.62s.14-1.15.41-1.62c.27-.46.65-.82,1.14-1.07.49-.25,1.05-.37,1.69-.37s1.17.12,1.65.37c.48.25.84.58,1.1,1.01.26.43.39.92.39,1.46,0,.19-.01.39-.04.6Zm-1.36-1.77c-.18-.27-.43-.48-.75-.62-.31-.14-.66-.21-1.04-.21-.55,0-1.02.16-1.4.48-.39.32-.61.76-.66,1.32h4.13c0-.38-.09-.7-.27-.97Z"/>
        <path class="cls-2" d="m371.6,95.79v7.56h-1.08v-7.56h1.08Z"/>
        <path class="cls-2" d="m378.57,97.96c.49.44.74,1.07.74,1.89v3.5h-1.07v-3.36c0-.59-.16-1.05-.49-1.36s-.77-.47-1.34-.47-1.03.16-1.37.49c-.34.33-.51.8-.51,1.42v3.29h-1.08v-5.94h1.08v.85c.21-.3.51-.54.88-.7.37-.17.78-.25,1.22-.25.8,0,1.44.22,1.93.66Z"/>
        <path class="cls-2" d="m382.41,98.22v3.5c0,.29.07.49.2.61.14.12.37.18.7.18h.8v.83h-.98c-.6,0-1.06-.13-1.36-.38-.3-.25-.45-.67-.45-1.25v-3.5h-.85v-.81h.85v-1.5h1.09v1.5h1.71v.81h-1.71Z"/>
        <path class="cls-2" d="m391.36,100.75h-5.23c.04.58.26,1.04.66,1.37.4.33.89.49,1.46.49.47,0,.86-.1,1.17-.3.31-.2.54-.46.66-.8h1.17c-.17.57-.52,1.04-1.05,1.39-.52.36-1.18.54-1.96.54-.62,0-1.17-.13-1.66-.38-.49-.25-.87-.61-1.15-1.08-.28-.47-.42-1.01-.42-1.62s.14-1.15.41-1.62c.27-.46.65-.82,1.14-1.07.49-.25,1.05-.37,1.69-.37s1.17.12,1.65.37c.48.25.84.58,1.1,1.01.26.43.39.92.39,1.46,0,.19-.01.39-.04.6Zm-1.36-1.77c-.18-.27-.43-.48-.75-.62-.31-.14-.66-.21-1.04-.21-.55,0-1.02.16-1.4.48-.39.32-.61.76-.66,1.32h4.13c0-.38-.09-.7-.27-.97Z"/>
        <path class="cls-2" d="m393.91,95.33v8.03h-1.08v-8.03h1.08Z"/>
        <path class="cls-2" d="m396.85,95.33v8.03h-1.08v-8.03h1.08Z"/>
        <path class="cls-2" d="m398.73,96.25c-.14-.13-.21-.29-.21-.48s.07-.35.21-.48c.14-.13.32-.2.53-.2s.37.06.51.2c.14.13.21.29.21.48s-.07.35-.21.48c-.14.13-.31.2-.51.2s-.38-.07-.53-.2Zm1.05,1.16v5.94h-1.08v-5.94h1.08Z"/>
        <path class="cls-2" d="m405.81,97.65c.43.22.74.51.95.85v-1.08h1.1v6.07c0,.54-.13,1.03-.38,1.45-.25.42-.62.75-1.09.99-.47.24-1.02.36-1.65.36-.86,0-1.58-.18-2.15-.55-.57-.37-.91-.87-1.01-1.51h1.07c.12.36.37.65.74.87.37.22.82.33,1.35.33.6,0,1.08-.17,1.46-.51s.57-.82.57-1.43v-1.25c-.21.35-.53.64-.96.87s-.91.35-1.48.35-1.11-.13-1.58-.39c-.47-.26-.85-.62-1.12-1.1-.27-.47-.41-1-.41-1.6s.14-1.14.41-1.6c.27-.46.64-.82,1.12-1.07.47-.25,1-.38,1.58-.38s1.06.11,1.49.34Zm.65,1.55c-.2-.33-.47-.59-.8-.76-.34-.18-.71-.27-1.12-.27s-.78.09-1.11.26-.6.43-.8.76c-.2.33-.3.72-.3,1.17s.1.85.3,1.19c.2.34.46.59.8.77.33.18.7.27,1.11.27s.78-.09,1.12-.27c.34-.18.61-.43.8-.77s.3-.73.3-1.18-.1-.84-.3-1.17Z"/>
        <path class="cls-2" d="m415.62,100.75h-5.23c.04.58.26,1.04.66,1.37.4.33.89.49,1.46.49.47,0,.86-.1,1.17-.3.31-.2.54-.46.66-.8h1.17c-.17.57-.52,1.04-1.05,1.39-.52.36-1.18.54-1.96.54-.62,0-1.17-.13-1.66-.38-.49-.25-.87-.61-1.15-1.08-.28-.47-.42-1.01-.42-1.62s.14-1.15.41-1.62c.27-.46.65-.82,1.14-1.07.49-.25,1.05-.37,1.69-.37s1.17.12,1.65.37c.48.25.84.58,1.1,1.01.26.43.39.92.39,1.46,0,.19-.01.39-.04.6Zm-1.36-1.77c-.18-.27-.43-.48-.75-.62-.31-.14-.66-.21-1.04-.21-.55,0-1.02.16-1.4.48-.39.32-.61.76-.66,1.32h4.13c0-.38-.09-.7-.27-.97Z"/>
        <path class="cls-2" d="m422.21,97.96c.49.44.74,1.07.74,1.89v3.5h-1.07v-3.36c0-.59-.16-1.05-.49-1.36s-.77-.47-1.34-.47-1.03.16-1.37.49c-.34.33-.51.8-.51,1.42v3.29h-1.08v-5.94h1.08v.85c.21-.3.51-.54.88-.7.37-.17.78-.25,1.22-.25.8,0,1.44.22,1.93.66Z"/>
        <path class="cls-2" d="m424.73,98.76c.27-.46.65-.82,1.13-1.07s1.03-.38,1.65-.38c.8,0,1.46.18,1.99.53.52.35.87.85,1.03,1.48h-1.17c-.11-.36-.33-.65-.65-.86-.32-.21-.72-.31-1.2-.31-.62,0-1.12.19-1.5.58s-.57.93-.57,1.64.19,1.27.57,1.66.88.59,1.5.59c.48,0,.88-.1,1.19-.3.32-.2.54-.49.66-.87h1.17c-.18.61-.53,1.09-1.05,1.46-.53.37-1.18.55-1.97.55-.62,0-1.17-.13-1.65-.38-.48-.25-.86-.61-1.13-1.07-.27-.46-.41-1-.41-1.63s.14-1.15.41-1.61Z"/>
        <path class="cls-2" d="m437.9,100.75h-5.23c.04.58.26,1.04.66,1.37.4.33.89.49,1.46.49.47,0,.86-.1,1.17-.3.31-.2.54-.46.66-.8h1.17c-.17.57-.52,1.04-1.05,1.39-.52.36-1.18.54-1.96.54-.62,0-1.17-.13-1.66-.38-.49-.25-.87-.61-1.15-1.08-.28-.47-.42-1.01-.42-1.62s.14-1.15.41-1.62c.27-.46.65-.82,1.14-1.07.49-.25,1.05-.37,1.69-.37s1.17.12,1.65.37c.48.25.84.58,1.1,1.01.26.43.39.92.39,1.46,0,.19-.01.39-.04.6Zm-1.36-1.77c-.18-.27-.43-.48-.75-.62-.31-.14-.66-.21-1.04-.21-.55,0-1.02.16-1.4.48-.39.32-.61.76-.66,1.32h4.13c0-.38-.09-.7-.27-.97Z"/>
      </g>
    </g>
  </g>
</svg>