<?xml version="1.0" encoding="UTF-8"?>
<svg id="Layer_2" data-name="Layer 2" xmlns="http://www.w3.org/2000/svg" xmlns:xlink="http://www.w3.org/1999/xlink" viewBox="0 0 438.49 111.12">
  <defs>
    <style>
      .cls-1 {
        fill: url(#linear-gradient);
      }

      .cls-1, .cls-2, .cls-3, .cls-4, .cls-5, .cls-6, .cls-7, .cls-8, .cls-9, .cls-10 {
        stroke-width: 0px;
      }

      .cls-2 {
        fill: url(#New_Gradient_Swatch_2-2);
      }

      .cls-3 {
        fill: #010101;
      }

      .cls-4 {
        fill: url(#New_Gradient_Swatch_2);
      }

      .cls-5 {
        fill: #160e3e;
      }

      .cls-6 {
        fill: #fff;
      }

      .cls-7 {
        fill: url(#linear-gradient-2);
      }

      .cls-8 {
        fill: url(#radial-gradient-2);
      }

      .cls-9 {
        fill: url(#New_Gradient_Swatch_2-3);
      }

      .cls-10 {
        fill: url(#radial-gradient);
      }
    </style>
    <linearGradient id="New_Gradient_Swatch_2" data-name="New Gradient Swatch 2" x1="5.95" y1="80.58" x2="59.96" y2="89.17" gradientUnits="userSpaceOnUse">
      <stop offset="0" stop-color="#ffcd60"/>
      <stop offset=".51" stop-color="#ea303f"/>
      <stop offset="1" stop-color="#804fa0"/>
    </linearGradient>
    <linearGradient id="New_Gradient_Swatch_2-2" data-name="New Gradient Swatch 2" x1="30.24" y1="23.23" x2="62.64" y2="63.74" xlink:href="#New_Gradient_Swatch_2"/>
    <linearGradient id="New_Gradient_Swatch_2-3" data-name="New Gradient Swatch 2" x1="99.88" y1="4.94" x2="81.15" y2="59.9" xlink:href="#New_Gradient_Swatch_2"/>
    <radialGradient id="radial-gradient" cx="-111.33" cy="275.58" fx="-111.33" fy="275.58" r="14.04" gradientTransform="translate(178.43 -336.96) rotate(-4.02) scale(1.21 1.52) skewX(2.93)" gradientUnits="userSpaceOnUse">
      <stop offset=".33" stop-color="#fff"/>
      <stop offset=".78" stop-color="#f4f3fa"/>
      <stop offset=".99" stop-color="#c3d5ee"/>
    </radialGradient>
    <linearGradient id="linear-gradient" x1="30.05" y1="122.24" x2="12.43" y2="134.09" gradientTransform="translate(39.7 -42.96) rotate(-9.73) scale(1.09 1)" gradientUnits="userSpaceOnUse">
      <stop offset="0" stop-color="#fff" stop-opacity=".06"/>
      <stop offset="1" stop-color="#fff" stop-opacity=".71"/>
    </linearGradient>
    <radialGradient id="radial-gradient-2" cx="-111.86" cy="278.75" fx="-111.86" fy="285.56" r="8.2" gradientTransform="translate(174.37 -363.95) rotate(-4.02) scale(1.21 1.6) skewX(3.08)" gradientUnits="userSpaceOnUse">
      <stop offset=".19" stop-color="#912372"/>
      <stop offset="1" stop-color="#160e3e"/>
    </radialGradient>
    <linearGradient id="linear-gradient-2" x1="95.89" y1="77.73" x2="87.75" y2="86.29" gradientUnits="userSpaceOnUse">
      <stop offset="0" stop-color="#fff" stop-opacity="0"/>
      <stop offset="1" stop-color="#fff" stop-opacity=".75"/>
    </linearGradient>
  </defs>
  <g id="Layer_1-2" data-name="Layer 1">
    <path class="cls-4" d="m26.13,77.34c-.79,0-1.44.64-1.44,1.44h0s-.02,14.86-.02,14.86c0,.79.64,1.44,1.44,1.44l20.78.03c.79,0,1.44-.64,1.44-1.44l.02-14.86c0-.79-.64-1.44-1.44-1.44l-20.78-.03Zm.77,4.44l2.17,1.59,3.21,2.73-5.4,5.29v-9.61Zm1.46,11.09l5.52-5.41.75.64c.5.43,1.16.66,1.86.66.7,0,1.37-.23,1.87-.66l.75-.64,5.5,5.43-16.26-.02Zm17.74-1.45l-5.38-5.31,5.39-4.3v9.61Zm-9.23-4.69c-.09.08-.23.12-.37.12-.15,0-.28-.04-.37-.12l-9.23-7.16,19.22.03-9.24,7.14Zm30.71,3.21c-5.34,4.57-11.24,8.59-17.81,11.09-6.57,2.5-13.86,3.41-20.69,1.77-6.74-1.61-12.75-5.63-17.54-10.65-4.78-5.02-8.43-11.02-11.56-17.21,3.77,1.19,7.87.88,11.71-.08,3.84-.96,7.48-2.53,11.2-3.87,7.95-2.86,16.76-4.65,24.81-2.09,7.68,2.45,13.67,8.56,18.18,15.23-4.14,3.51-9.89,5.05-15.24,4.08,1.96-.5,3.89-1.23,5.72-2.11,6.42-3.1-3.82-9.1-6.76-10.52-3.74-1.81-7.95-2.68-12.11-2.47-10.02.51-19.13,6.69-29.16,7.01,1.75,3.37,4.73,7.21,7.6,9.69,7.13,6.16,15,9.67,25.41,8.98,9.4-.62,18.86-3,26.23-8.87Z"/>
    <path class="cls-2" d="m43.59,45.07c.35.38.51.83.47,1.34-.04.52-.26.95-.65,1.29s-.84.5-1.34.47c-.51-.03-.93-.24-1.28-.63-.34-.43-.5-.88-.48-1.36.02-.48.23-.9.63-1.28s.85-.53,1.36-.48c.51.05.94.27,1.29.65Zm12.35.78c-.19-.08-.74-.34-1.63-.79-.9-.45-1.64-.79-2.23-1.02-.59-.23-1.08-.38-1.47-.46-.33-.03-.59.03-.77.18-.19.15-.32.37-.38.66-.07.29-.09.62-.08,1,.01.38.05.79.09,1.22.05.44.1.86.16,1.27.06.41.1.82.12,1.22.02.41.02.74-.02,1s-.14.48-.32.66c-.18.16-.64.16-1.37.01-.1-.02-.26-.04-.48-.09-.76-.16-1.26-.22-1.5-.19-.38.05-.52.27-.41.65.07.22.23.7.49,1.43.26.73.44,1.28.56,1.63l.26.3c.23.26.52.4.86.44.35.03.65-.07.9-.31l7.48-6.6c.26-.23.4-.51.42-.85.02-.34-.08-.65-.31-.92l-.38-.43Zm3.68,4.18l-9.35,8.25c-.79.68-1.69.99-2.72.93-1.02-.05-1.88-.47-2.57-1.25l-8.25-9.35c-.69-.78-1-1.68-.93-2.72.06-1.03.49-1.89,1.26-2.58l9.35-8.25c.77-.68,1.67-.98,2.7-.92,1.03.06,1.89.49,2.58,1.26l8.25,9.35c.68.77.98,1.67.92,2.7-.06,1.03-.48,1.89-1.25,2.57Zm-1.23-2.72c.02-.34-.08-.64-.31-.9l-8.25-9.35c-.21-.26-.49-.4-.85-.42-.36-.02-.66.08-.91.3l-9.35,8.25c-.26.25-.4.54-.42.88-.02.34.08.64.31.9l8.25,9.35c.22.27.5.41.85.42.35.01.65-.1.91-.32l9.35-8.25c.26-.23.4-.51.42-.85Zm11.56,17.21c1.35-7.94,1.24-16.5-2.62-23.57-4.05-7.42-11.65-12.21-19.38-15.64-3.61-1.6-7.34-2.99-10.77-4.95-3.43-1.96-6.61-4.57-8.52-8.03-2.01,6.64-3.52,13.49-3.53,20.42,0,6.93,1.56,13.99,5.32,19.82,3.81,5.91,9.71,10.28,16.18,13.02,6.47,2.73,13.52,3.91,20.53,4.29-9.38-.85-17.87-5.67-25.09-11.71-8-6.7-11.26-14.68-12.16-24.05-.36-3.77.14-8.61,1.2-12.25,7.47,6.7,18.32,8.53,25.92,15.08,3.15,2.72,5.59,6.25,7.05,10.15,1.14,3.06,4.41,14.47-2.38,12.28-1.93-.62-3.82-1.43-5.59-2.42,3.19,4.4,8.41,7.25,13.84,7.58Z"/>
    <path class="cls-9" d="m84.62,33.66c.12-.4.54-.62.94-.51l8.18,2.46c.4.12.62.54.51.94-.12.4-.54.63-.94.51l-8.18-2.46c-.4-.12-.63-.54-.51-.94Zm-.07,2.86l8.18,2.46c.4.12.82-.11.94-.51.12-.4-.11-.82-.51-.94l-8.18-2.46c-.4-.12-.82.11-.94.51-.12.4.11.82.51.94Zm8.54,3.88c.12-.4-.11-.82-.51-.94l-8.18-2.46c-.4-.12-.82.11-.94.51-.12.4.11.82.51.94l8.18,2.46c.4.12.82-.11.94-.51Zm-1.39,6.21l-9.86-2.96c-1.94-.58-3.05-2.64-2.47-4.58l4.44-14.79c.58-1.94,2.64-3.05,4.58-2.47l4.99,1.5.05.03c.07.03.13.07.19.11l.08.06c.11.1.19.2.25.31l5.25,9.74v.03c.03.08.05.16.07.25v.04s0,.07,0,.07c0,.07,0,.15-.01.22v.04s-.03.1-.03.1l-2.95,9.83c-.58,1.94-2.64,3.05-4.58,2.47Zm-9.23-5.07l9.86,2.96c.78.23,1.6-.21,1.83-.99h0s2.63-8.78,2.63-8.78l-3.9-1.17c-1.94-.58-3.05-2.64-2.47-4.58l1.17-3.9-3.85-1.15c-.78-.23-1.6.21-1.83.99l-4.44,14.79c-.23.78.21,1.6.99,1.83Zm24.15-18.29c-.65-3.9-1.54-7.77-1.8-11.71-.25-3.94.17-8.04,2.02-11.53-6.65,1.97-13.2,4.48-19,8.29-5.79,3.81-10.82,9-13.62,15.35-2.83,6.43-3.24,13.77-1.96,20.68s4.18,13.44,7.72,19.5c-4.45-8.3-5.1-18.04-4.03-27.39,1.19-10.37,6.06-17.48,13.39-23.39,2.95-2.38,7.27-4.62,10.89-5.74-1.49,9.92,2.96,19.99,1.67,29.94-.53,4.13-2.15,8.11-4.6,11.47-1.92,2.64-9.66,11.64-11.56,4.77-.54-1.95-.91-3.98-1.05-6-1.91,5.09-1.43,11.02,1.29,15.72,7.37-3.25,14.46-8.05,18.24-15.16,3.97-7.46,3.78-16.45,2.39-24.79Z"/>
    <g>
      <ellipse class="cls-5" cx="88.14" cy="88.61" rx="17.42" ry="24.33" transform="translate(-34.06 62.37) rotate(-33.03)"/>
      <ellipse class="cls-10" cx="88.28" cy="87.94" rx="17.32" ry="24.19" transform="translate(-33.67 62.34) rotate(-33.03)"/>
      <path class="cls-1" d="m95.4,86.06c2.54-1.26,4.95-2.77,7.24-4.42.35-.26.72-.53.91-.92.58-1.15-1.23-3.08-1.8-3.98-.14-.23-.27-.49-.45-.7-8.42-10.17-20.29-13.17-26.53-6.69-4.43,4.6-4.82,12.73-1.66,20.7,6.54,1.1,13.33-.18,19.4-2.69.98-.4,1.94-.84,2.88-1.31Z"/>
      <ellipse class="cls-8" cx="93.27" cy="84.46" rx="7.36" ry="10.28" transform="translate(-30.97 64.5) rotate(-33.03)"/>
      <path class="cls-7" d="m98.91,81.1c-2.45-3.77-6.62-5.4-9.32-3.65-2.7,1.75-2.9,6.23-.45,10,.1.15.2.29.3.43,5.93-2.45,9.66-6.46,9.66-6.46,0,0-.13-.22-.2-.33Z"/>
      <ellipse class="cls-6" cx="89.54" cy="90.62" rx="2.55" ry="3.44" transform="translate(-37.74 85.17) rotate(-42.89)"/>
    </g>
    <g>
      <g>
        <path class="cls-3" d="m133.61,72.93h15.17v8.94h-26.74v-47.53h11.58v38.59Z"/>
        <path class="cls-3" d="m191.63,44.08v37.78h-11.58v-5.15c-1.17,1.67-2.77,3.01-4.77,4.03-2.01,1.02-4.23,1.52-6.67,1.52-2.89,0-5.44-.64-7.65-1.93-2.21-1.29-3.93-3.15-5.15-5.59s-1.83-5.3-1.83-8.6v-22.07h11.51v20.52c0,2.53.65,4.49,1.96,5.89,1.31,1.4,3.07,2.1,5.28,2.1s4.04-.7,5.35-2.1c1.31-1.4,1.96-3.36,1.96-5.89v-20.52h11.58Z"/>
        <path class="cls-3" d="m259.38,47.94c2.78,2.84,4.16,6.79,4.16,11.85v22.07h-11.51v-20.52c0-2.44-.64-4.32-1.93-5.65-1.29-1.33-3.06-2-5.31-2s-4.03.67-5.31,2c-1.29,1.33-1.93,3.22-1.93,5.65v20.52h-11.51v-20.52c0-2.44-.64-4.32-1.93-5.65-1.29-1.33-3.06-2-5.32-2s-4.03.67-5.32,2c-1.29,1.33-1.93,3.22-1.93,5.65v20.52h-11.58v-37.78h11.58v4.74c1.17-1.58,2.71-2.83,4.6-3.76,1.9-.92,4.04-1.39,6.43-1.39,2.84,0,5.38.61,7.62,1.83,2.23,1.22,3.98,2.96,5.25,5.21,1.31-2.08,3.09-3.77,5.35-5.08,2.26-1.31,4.72-1.96,7.38-1.96,4.69,0,8.43,1.42,11.21,4.27Z"/>
        <path class="cls-3" d="m307.08,65.75h-26.2c.18,2.35.94,4.14,2.27,5.38,1.33,1.24,2.97,1.86,4.91,1.86,2.89,0,4.9-1.22,6.03-3.66h12.32c-.63,2.48-1.77,4.72-3.42,6.7-1.65,1.99-3.71,3.54-6.2,4.67-2.48,1.13-5.26,1.69-8.33,1.69-3.7,0-7-.79-9.89-2.37-2.89-1.58-5.15-3.84-6.77-6.77-1.62-2.93-2.44-6.36-2.44-10.29s.8-7.36,2.4-10.29c1.6-2.93,3.85-5.19,6.74-6.77,2.89-1.58,6.21-2.37,9.95-2.37s6.91.77,9.75,2.3c2.84,1.54,5.07,3.72,6.67,6.57,1.6,2.84,2.4,6.16,2.4,9.95,0,1.08-.07,2.21-.2,3.39Zm-11.65-6.43c0-1.99-.68-3.57-2.03-4.74-1.35-1.17-3.05-1.76-5.08-1.76s-3.58.56-4.91,1.69c-1.33,1.13-2.16,2.73-2.47,4.81h14.49Z"/>
        <path class="cls-3" d="m346.99,47.98c2.64,2.87,3.96,6.8,3.96,11.81v22.07h-11.51v-20.52c0-2.53-.65-4.49-1.96-5.89-1.31-1.4-3.07-2.1-5.28-2.1s-3.97.7-5.28,2.1c-1.31,1.4-1.96,3.36-1.96,5.89v20.52h-11.58v-37.78h11.58v5.01c1.17-1.67,2.75-2.99,4.74-3.96,1.99-.97,4.22-1.46,6.7-1.46,4.42,0,7.96,1.43,10.6,4.3Z"/>
        <path class="cls-3" d="m402.95,73.47h-17.74l-2.84,8.4h-12.12l17.2-47.53h13.41l17.2,47.53h-12.26l-2.84-8.4Zm-2.98-8.94l-5.89-17.4-5.82,17.4h11.71Z"/>
        <path class="cls-3" d="m434.84,34.33v47.53h-11.58v-47.53h11.58Z"/>
      </g>
      <g>
        <path class="cls-3" d="m127.63,95.91v.8h-2.27v6.76h-1.09v-6.76h-2.28v-.8h5.64Z"/>
        <path class="cls-3" d="m130.87,97.7c.35-.19.79-.28,1.3-.28v1.02h-.29c-1.22,0-1.83.6-1.83,1.8v3.24h-1.09v-5.95h1.09v.97c.19-.34.46-.6.82-.79Z"/>
        <path class="cls-3" d="m133.42,98.88c.27-.46.64-.82,1.12-1.07.47-.25,1-.38,1.58-.38s1.07.11,1.49.34c.42.22.74.51.94.85v-1.09h1.1v5.95h-1.1v-1.11c-.22.35-.54.64-.96.86-.43.23-.92.34-1.49.34s-1.11-.13-1.58-.39-.84-.63-1.11-1.1c-.27-.47-.41-1.01-.41-1.61s.14-1.14.41-1.6Zm4.84.44c-.2-.33-.47-.59-.81-.77-.34-.18-.71-.27-1.12-.27s-.78.09-1.11.26c-.33.17-.6.43-.8.76-.2.33-.3.72-.3,1.17s.1.85.3,1.19c.2.34.47.59.8.77.33.18.7.27,1.11.27s.78-.09,1.12-.27c.34-.18.61-.43.81-.77.2-.34.3-.73.3-1.18s-.1-.84-.3-1.17Z"/>
        <path class="cls-3" d="m146.62,98.08c.49.44.74,1.07.74,1.89v3.51h-1.07v-3.37c0-.59-.16-1.05-.49-1.36-.33-.32-.77-.47-1.34-.47s-1.03.16-1.37.49c-.34.33-.51.8-.51,1.42v3.29h-1.09v-5.95h1.09v.85c.22-.3.51-.54.88-.71.37-.17.78-.25,1.22-.25.8,0,1.44.22,1.93.66Z"/>
        <path class="cls-3" d="m150.11,103.35c-.4-.16-.71-.37-.94-.65-.23-.28-.36-.6-.38-.96h1.12c.03.3.19.54.46.73.27.19.63.28,1.08.28.41,0,.74-.08.98-.25.24-.17.36-.38.36-.63s-.13-.45-.38-.58c-.25-.13-.65-.25-1.18-.37-.49-.12-.88-.23-1.19-.35-.31-.12-.57-.3-.79-.53-.22-.24-.33-.54-.33-.93,0-.3.1-.58.3-.84.2-.25.48-.45.85-.6.37-.15.78-.22,1.25-.22.72,0,1.31.17,1.76.5.45.33.68.79.72,1.37h-1.09c-.02-.31-.16-.56-.41-.75-.25-.19-.59-.28-1.01-.28-.39,0-.7.08-.93.23-.23.15-.35.35-.35.6,0,.2.07.36.21.48.14.13.31.23.53.3.21.08.5.16.88.26.47.12.85.23,1.15.34.29.11.55.28.76.5.21.22.32.52.33.88,0,.33-.1.62-.3.88-.2.26-.48.47-.84.61-.36.15-.78.22-1.25.22-.5,0-.95-.08-1.35-.23Z"/>
        <path class="cls-3" d="m158.04,98.35h-1.37v5.14h-1.09v-5.14h-.85v-.81h.85v-.42c0-.67.19-1.15.57-1.46.38-.31.99-.46,1.82-.46v.83c-.48,0-.81.09-1.01.26-.2.17-.29.45-.29.84v.42h1.37v.81Z"/>
        <path class="cls-3" d="m160.49,103.2c-.5-.25-.89-.61-1.17-1.08-.28-.47-.42-1.01-.42-1.62s.15-1.15.44-1.61c.29-.47.69-.83,1.19-1.07.5-.25,1.06-.37,1.68-.37s1.18.13,1.68.37c.5.25.9.61,1.19,1.07.29.46.44,1,.44,1.62s-.15,1.16-.45,1.62-.7.83-1.21,1.08c-.51.25-1.08.38-1.7.38s-1.17-.13-1.67-.38Zm2.77-.74c.34-.17.62-.42.83-.75.21-.33.32-.74.32-1.22s-.1-.88-.31-1.22c-.21-.33-.48-.58-.81-.74-.33-.16-.7-.24-1.09-.24s-.76.08-1.09.24c-.33.16-.6.41-.79.74-.2.33-.3.74-.3,1.22s.1.89.29,1.23c.19.33.46.58.78.74.33.16.68.24,1.07.24s.76-.08,1.1-.25Z"/>
        <path class="cls-3" d="m168.85,97.7c.35-.19.79-.28,1.3-.28v1.02h-.29c-1.22,0-1.83.6-1.83,1.8v3.24h-1.09v-5.95h1.09v.97c.19-.34.46-.6.82-.79Z"/>
        <path class="cls-3" d="m180.64,97.71c.4.19.71.48.94.86.23.38.35.85.35,1.4v3.51h-1.07v-3.37c0-.59-.16-1.05-.48-1.36-.32-.32-.76-.47-1.31-.47s-1.02.16-1.35.49c-.33.33-.5.81-.5,1.43v3.28h-1.07v-3.37c0-.59-.16-1.05-.48-1.36-.32-.32-.76-.47-1.31-.47s-1.02.16-1.35.49c-.33.33-.5.81-.5,1.43v3.28h-1.09v-5.95h1.09v.86c.22-.31.5-.55.87-.72.36-.17.76-.25,1.2-.25.55,0,1.04.11,1.46.34.42.22.74.55.94.99.18-.42.49-.75.91-.98.42-.23.89-.35,1.41-.35s.96.1,1.36.29Z"/>
        <path class="cls-3" d="m183.74,96.37c-.14-.13-.22-.29-.22-.48s.07-.35.22-.48c.14-.13.32-.2.53-.2s.37.07.51.2c.14.13.21.29.21.48s-.07.35-.21.48c-.14.13-.31.2-.51.2s-.38-.07-.53-.2Zm1.05,1.16v5.95h-1.09v-5.95h1.09Z"/>
        <path class="cls-3" d="m191.77,98.08c.49.44.74,1.07.74,1.89v3.51h-1.07v-3.37c0-.59-.16-1.05-.49-1.36-.33-.32-.77-.47-1.34-.47s-1.03.16-1.37.49c-.34.33-.51.8-.51,1.42v3.29h-1.09v-5.95h1.09v.85c.22-.3.51-.54.88-.71.37-.17.78-.25,1.22-.25.8,0,1.44.22,1.93.66Z"/>
        <path class="cls-3" d="m198.48,97.77c.43.22.74.51.95.85v-1.09h1.1v6.08c0,.54-.13,1.03-.38,1.45s-.62.75-1.09.99c-.47.24-1.03.36-1.65.36-.86,0-1.58-.18-2.15-.55-.57-.37-.91-.87-1.02-1.51h1.07c.12.36.37.65.74.87s.82.33,1.35.33c.6,0,1.08-.17,1.46-.51.38-.34.57-.82.57-1.43v-1.25c-.22.35-.53.64-.96.87-.42.23-.92.35-1.48.35s-1.11-.13-1.58-.39-.85-.63-1.12-1.1c-.27-.47-.41-1.01-.41-1.61s.14-1.14.41-1.6c.27-.46.64-.82,1.12-1.07.47-.25,1-.38,1.58-.38s1.06.11,1.49.34Zm.65,1.55c-.2-.33-.47-.59-.81-.77-.34-.18-.71-.27-1.12-.27s-.78.09-1.11.26c-.33.17-.6.43-.8.76-.2.33-.3.72-.3,1.17s.1.85.3,1.19c.2.34.47.59.8.77.33.18.7.27,1.11.27s.78-.09,1.12-.27c.34-.18.61-.43.81-.77.2-.34.3-.73.3-1.18s-.1-.84-.3-1.17Z"/>
        <path class="cls-3" d="m210.5,96.37c.66.31,1.17.75,1.53,1.32.35.57.53,1.25.53,2.02s-.18,1.45-.53,2.01c-.35.57-.86,1-1.53,1.3-.67.3-1.45.45-2.36.45h-2.59v-7.57h2.59c.91,0,1.69.15,2.36.46Zm.1,5.52c.57-.52.85-1.24.85-2.18s-.28-1.68-.85-2.2c-.57-.53-1.39-.79-2.45-.79h-1.51v5.95h1.51c1.08,0,1.9-.26,2.46-.78Z"/>
        <path class="cls-3" d="m215.19,103.2c-.5-.25-.89-.61-1.17-1.08-.28-.47-.42-1.01-.42-1.62s.15-1.15.44-1.61c.29-.47.69-.83,1.19-1.07.5-.25,1.06-.37,1.68-.37s1.18.13,1.68.37c.5.25.9.61,1.19,1.07.29.46.44,1,.44,1.62s-.15,1.16-.45,1.62-.7.83-1.21,1.08c-.51.25-1.08.38-1.7.38s-1.17-.13-1.67-.38Zm2.77-.74c.34-.17.62-.42.83-.75.21-.33.32-.74.32-1.22s-.1-.88-.31-1.22c-.21-.33-.48-.58-.81-.74-.33-.16-.7-.24-1.09-.24s-.76.08-1.09.24c-.33.16-.6.41-.79.74-.2.33-.3.74-.3,1.22s.1.89.29,1.23c.19.33.46.58.78.74.33.16.68.24,1.07.24s.76-.08,1.1-.25Z"/>
        <path class="cls-3" d="m221.64,98.88c.27-.46.65-.82,1.13-1.07.48-.25,1.03-.38,1.65-.38.8,0,1.47.18,1.99.53.52.35.87.85,1.03,1.48h-1.17c-.11-.36-.33-.65-.65-.86s-.72-.32-1.2-.32c-.62,0-1.12.19-1.51.58-.38.39-.57.94-.57,1.65s.19,1.27.57,1.66c.38.39.88.59,1.51.59.48,0,.88-.1,1.19-.3.32-.2.54-.49.66-.87h1.17c-.18.61-.53,1.1-1.05,1.46s-1.18.55-1.97.55c-.62,0-1.17-.13-1.65-.38-.48-.25-.86-.61-1.13-1.08-.27-.46-.41-1.01-.41-1.63s.14-1.15.41-1.61Z"/>
        <path class="cls-3" d="m234.7,97.53v5.95h-1.09v-.88c-.21.3-.5.54-.87.71-.37.17-.78.26-1.22.26-.51,0-.97-.1-1.37-.29-.41-.19-.73-.48-.96-.86-.23-.38-.35-.85-.35-1.4v-3.49h1.07v3.36c0,.59.16,1.04.49,1.35.33.31.77.47,1.34.47s1.04-.16,1.37-.49c.33-.33.5-.8.5-1.42v-3.27h1.09Z"/>
        <path class="cls-3" d="m245.77,97.71c.4.19.71.48.94.86.23.38.35.85.35,1.4v3.51h-1.08v-3.37c0-.59-.16-1.05-.48-1.36-.32-.32-.76-.47-1.31-.47s-1.02.16-1.35.49c-.33.33-.5.81-.5,1.43v3.28h-1.07v-3.37c0-.59-.16-1.05-.48-1.36-.32-.32-.76-.47-1.31-.47s-1.01.16-1.35.49c-.33.33-.5.81-.5,1.43v3.28h-1.09v-5.95h1.09v.86c.22-.31.5-.55.87-.72.36-.17.76-.25,1.2-.25.55,0,1.03.11,1.46.34.42.22.74.55.94.99.18-.42.49-.75.91-.98.42-.23.89-.35,1.41-.35s.96.1,1.36.29Z"/>
        <path class="cls-3" d="m254.78,100.88h-5.23c.04.59.26,1.04.66,1.37.4.33.89.49,1.46.49.47,0,.86-.1,1.18-.3.31-.2.54-.47.66-.8h1.17c-.18.57-.53,1.04-1.05,1.4-.53.36-1.18.54-1.96.54-.62,0-1.18-.13-1.67-.38-.49-.25-.87-.61-1.15-1.08s-.42-1.01-.42-1.62.14-1.15.41-1.62c.27-.46.65-.82,1.14-1.07.49-.25,1.05-.37,1.69-.37s1.17.12,1.65.37c.48.25.85.58,1.1,1.02s.39.92.39,1.46c0,.19-.01.39-.04.6Zm-1.36-1.78c-.18-.27-.43-.48-.75-.62-.31-.14-.66-.21-1.04-.21-.55,0-1.02.16-1.4.48-.39.32-.61.76-.66,1.32h4.13c0-.38-.09-.7-.27-.97Z"/>
        <path class="cls-3" d="m261.37,98.08c.49.44.74,1.07.74,1.89v3.51h-1.07v-3.37c0-.59-.16-1.05-.49-1.36-.33-.32-.77-.47-1.34-.47s-1.03.16-1.37.49c-.34.33-.51.8-.51,1.42v3.29h-1.09v-5.95h1.09v.85c.21-.3.51-.54.88-.71.37-.17.78-.25,1.22-.25.8,0,1.44.22,1.93.66Z"/>
        <path class="cls-3" d="m265.22,98.35v3.51c0,.29.07.49.2.61s.37.18.7.18h.8v.84h-.98c-.61,0-1.06-.13-1.36-.38-.3-.25-.45-.67-.45-1.25v-3.51h-.85v-.81h.85v-1.5h1.09v1.5h1.71v.81h-1.71Z"/>
        <path class="cls-3" d="m269.21,103.35c-.4-.16-.71-.37-.94-.65-.23-.28-.36-.6-.38-.96h1.12c.03.3.19.54.46.73.28.19.64.28,1.08.28.41,0,.74-.08.98-.25.24-.17.36-.38.36-.63s-.13-.45-.38-.58c-.26-.13-.65-.25-1.18-.37-.49-.12-.88-.23-1.19-.35-.31-.12-.57-.3-.79-.53-.22-.24-.33-.54-.33-.93,0-.3.1-.58.3-.84.2-.25.48-.45.85-.6.37-.15.78-.22,1.25-.22.72,0,1.31.17,1.76.5.45.33.68.79.72,1.37h-1.09c-.02-.31-.16-.56-.41-.75-.25-.19-.59-.28-1.01-.28-.39,0-.7.08-.93.23-.23.15-.35.35-.35.6,0,.2.07.36.21.48.14.13.31.23.53.3.21.08.5.16.88.26.47.12.85.23,1.15.34.29.11.55.28.76.5.21.22.32.52.33.88,0,.33-.1.62-.3.88-.2.26-.48.47-.84.61-.36.15-.78.22-1.25.22-.5,0-.95-.08-1.35-.23Z"/>
        <path class="cls-3" d="m277.7,96.37c-.14-.13-.22-.29-.22-.48s.07-.35.22-.48.32-.2.53-.2.37.07.51.2c.14.13.21.29.21.48s-.07.35-.21.48c-.14.13-.31.2-.51.2s-.38-.07-.53-.2Zm1.05,1.16v5.95h-1.09v-5.95h1.09Z"/>
        <path class="cls-3" d="m285.73,98.08c.49.44.74,1.07.74,1.89v3.51h-1.07v-3.37c0-.59-.16-1.05-.49-1.36-.33-.32-.77-.47-1.34-.47s-1.03.16-1.37.49c-.34.33-.51.8-.51,1.42v3.29h-1.09v-5.95h1.09v.85c.21-.3.51-.54.88-.71.37-.17.78-.25,1.22-.25.8,0,1.44.22,1.93.66Z"/>
        <path class="cls-3" d="m289.57,98.35v3.51c0,.29.07.49.2.61s.37.18.7.18h.8v.84h-.98c-.61,0-1.06-.13-1.36-.38-.3-.25-.45-.67-.45-1.25v-3.51h-.85v-.81h.85v-1.5h1.09v1.5h1.71v.81h-1.71Z"/>
        <path class="cls-3" d="m293.78,103.2c-.5-.25-.89-.61-1.17-1.08s-.42-1.01-.42-1.62.15-1.15.44-1.61c.29-.47.69-.83,1.19-1.07.5-.25,1.06-.37,1.68-.37s1.18.13,1.68.37c.5.25.9.61,1.19,1.07.29.46.44,1,.44,1.62s-.15,1.16-.45,1.62-.7.83-1.21,1.08c-.51.25-1.08.38-1.7.38s-1.17-.13-1.67-.38Zm2.77-.74c.34-.17.62-.42.83-.75.21-.33.32-.74.32-1.22s-.1-.88-.31-1.22c-.21-.33-.48-.58-.81-.74-.33-.16-.7-.24-1.09-.24s-.76.08-1.09.24c-.33.16-.6.41-.79.74-.2.33-.3.74-.3,1.22s.1.89.29,1.23.46.58.78.74c.33.16.68.24,1.08.24s.76-.08,1.1-.25Z"/>
        <path class="cls-3" d="m308.35,101.8h-3.63l-.67,1.68h-1.15l3.01-7.53h1.25l3,7.53h-1.15l-.67-1.68Zm-.31-.8l-1.51-3.82-1.51,3.82h3.01Z"/>
        <path class="cls-3" d="m311.48,98.88c.27-.46.65-.82,1.13-1.07.48-.25,1.03-.38,1.65-.38.8,0,1.47.18,1.99.53.52.35.87.85,1.03,1.48h-1.17c-.11-.36-.33-.65-.65-.86s-.72-.32-1.2-.32c-.62,0-1.12.19-1.5.58-.38.39-.57.94-.57,1.65s.19,1.27.57,1.66c.38.39.88.59,1.5.59.48,0,.88-.1,1.19-.3.32-.2.54-.49.66-.87h1.17c-.18.61-.53,1.1-1.05,1.46-.53.37-1.18.55-1.97.55-.62,0-1.17-.13-1.65-.38-.48-.25-.86-.61-1.13-1.08-.27-.46-.41-1.01-.41-1.63s.14-1.15.41-1.61Z"/>
        <path class="cls-3" d="m320.05,98.35v3.51c0,.29.07.49.2.61.14.12.37.18.7.18h.8v.84h-.98c-.61,0-1.06-.13-1.36-.38-.3-.25-.45-.67-.45-1.25v-3.51h-.85v-.81h.85v-1.5h1.09v1.5h1.71v.81h-1.71Z"/>
        <path class="cls-3" d="m323.11,96.37c-.14-.13-.21-.29-.21-.48s.07-.35.21-.48.32-.2.53-.2.37.07.51.2.21.29.21.48-.07.35-.21.48c-.14.13-.31.2-.51.2s-.38-.07-.53-.2Zm1.05,1.16v5.95h-1.09v-5.95h1.09Z"/>
        <path class="cls-3" d="m327.2,103.2c-.5-.25-.89-.61-1.17-1.08-.28-.47-.42-1.01-.42-1.62s.15-1.15.44-1.61c.29-.47.69-.83,1.19-1.07.5-.25,1.06-.37,1.68-.37s1.18.13,1.68.37c.5.25.9.61,1.19,1.07.29.46.44,1,.44,1.62s-.15,1.16-.45,1.62c-.3.47-.7.83-1.21,1.08-.51.25-1.08.38-1.7.38s-1.17-.13-1.67-.38Zm2.77-.74c.34-.17.62-.42.83-.75.21-.33.32-.74.32-1.22s-.1-.88-.31-1.22c-.21-.33-.48-.58-.81-.74-.33-.16-.7-.24-1.09-.24s-.76.08-1.09.24c-.33.16-.6.41-.79.74-.2.33-.3.74-.3,1.22s.1.89.29,1.23c.19.33.46.58.78.74.33.16.68.24,1.08.24s.76-.08,1.1-.25Z"/>
        <path class="cls-3" d="m338.78,98.08c.49.44.74,1.07.74,1.89v3.51h-1.07v-3.37c0-.59-.16-1.05-.49-1.36-.33-.32-.77-.47-1.34-.47s-1.03.16-1.37.49c-.34.33-.51.8-.51,1.42v3.29h-1.09v-5.95h1.09v.85c.21-.3.51-.54.88-.71.37-.17.78-.25,1.22-.25.8,0,1.44.22,1.93.66Z"/>
        <path class="cls-3" d="m341.3,98.88c.27-.46.64-.82,1.12-1.07.47-.25,1-.38,1.58-.38s1.07.11,1.49.34c.42.22.74.51.94.85v-1.09h1.1v5.95h-1.1v-1.11c-.21.35-.54.64-.96.86s-.92.34-1.49.34-1.11-.13-1.58-.39c-.47-.26-.84-.63-1.11-1.1-.27-.47-.41-1.01-.41-1.61s.14-1.14.41-1.6Zm4.84.44c-.2-.33-.47-.59-.81-.77-.34-.18-.71-.27-1.12-.27s-.78.09-1.11.26c-.33.17-.6.43-.8.76s-.3.72-.3,1.17.1.85.3,1.19.47.59.8.77c.33.18.7.27,1.11.27s.78-.09,1.12-.27c.34-.18.61-.43.81-.77.2-.34.3-.73.3-1.18s-.1-.84-.3-1.17Z"/>
        <path class="cls-3" d="m351.45,97.77c.43-.22.92-.34,1.47-.34.59,0,1.12.13,1.59.38.47.25.84.61,1.11,1.07.27.46.41.99.41,1.6s-.14,1.14-.41,1.61c-.27.47-.64.84-1.12,1.1s-1,.39-1.58.39-1.06-.11-1.49-.34c-.43-.22-.75-.51-.96-.86v1.1h-1.09v-8.04h1.09v3.19c.22-.35.55-.64.98-.87Zm3.17,1.54c-.2-.33-.47-.59-.81-.76-.34-.17-.71-.26-1.12-.26s-.77.09-1.1.27c-.34.18-.61.43-.81.77-.2.34-.3.73-.3,1.17s.1.84.3,1.18c.2.34.47.59.81.77.34.18.71.27,1.1.27s.78-.09,1.12-.27c.34-.18.61-.43.81-.77s.3-.73.3-1.19-.1-.84-.3-1.17Z"/>
        <path class="cls-3" d="m358.54,95.45v8.04h-1.09v-8.04h1.09Z"/>
        <path class="cls-3" d="m366.33,100.88h-5.23c.04.59.26,1.04.66,1.37.4.33.89.49,1.46.49.47,0,.86-.1,1.18-.3.31-.2.54-.47.66-.8h1.17c-.18.57-.53,1.04-1.05,1.4s-1.18.54-1.96.54c-.62,0-1.18-.13-1.67-.38-.49-.25-.87-.61-1.15-1.08-.28-.47-.42-1.01-.42-1.62s.14-1.15.41-1.62c.27-.46.65-.82,1.14-1.07.49-.25,1.05-.37,1.69-.37s1.17.12,1.65.37c.48.25.85.58,1.11,1.02.26.43.39.92.39,1.46,0,.19-.01.39-.04.6Zm-1.36-1.78c-.18-.27-.43-.48-.75-.62-.31-.14-.66-.21-1.05-.21-.55,0-1.02.16-1.4.48-.39.32-.61.76-.66,1.32h4.13c0-.38-.09-.7-.27-.97Z"/>
        <path class="cls-3" d="m372.07,95.91v7.57h-1.09v-7.57h1.09Z"/>
        <path class="cls-3" d="m379.05,98.08c.49.44.74,1.07.74,1.89v3.51h-1.07v-3.37c0-.59-.16-1.05-.49-1.36-.33-.32-.77-.47-1.34-.47s-1.03.16-1.37.49c-.34.33-.51.8-.51,1.42v3.29h-1.09v-5.95h1.09v.85c.21-.3.51-.54.88-.71.37-.17.78-.25,1.22-.25.8,0,1.44.22,1.93.66Z"/>
        <path class="cls-3" d="m382.9,98.35v3.51c0,.29.07.49.2.61s.37.18.7.18h.8v.84h-.98c-.61,0-1.06-.13-1.36-.38-.3-.25-.45-.67-.45-1.25v-3.51h-.85v-.81h.85v-1.5h1.09v1.5h1.71v.81h-1.71Z"/>
        <path class="cls-3" d="m391.85,100.88h-5.23c.04.59.26,1.04.66,1.37.4.33.89.49,1.46.49.47,0,.86-.1,1.18-.3.31-.2.54-.47.66-.8h1.17c-.18.57-.53,1.04-1.05,1.4-.53.36-1.18.54-1.96.54-.62,0-1.18-.13-1.67-.38-.49-.25-.87-.61-1.15-1.08-.28-.47-.42-1.01-.42-1.62s.14-1.15.41-1.62c.27-.46.65-.82,1.14-1.07.49-.25,1.05-.37,1.69-.37s1.17.12,1.65.37c.48.25.85.58,1.11,1.02.26.43.39.92.39,1.46,0,.19-.01.39-.04.6Zm-1.36-1.78c-.18-.27-.43-.48-.75-.62-.32-.14-.66-.21-1.05-.21-.55,0-1.02.16-1.4.48-.39.32-.61.76-.66,1.32h4.13c0-.38-.09-.7-.27-.97Z"/>
        <path class="cls-3" d="m394.41,95.45v8.04h-1.09v-8.04h1.09Z"/>
        <path class="cls-3" d="m397.35,95.45v8.04h-1.09v-8.04h1.09Z"/>
        <path class="cls-3" d="m399.24,96.37c-.14-.13-.22-.29-.22-.48s.07-.35.22-.48c.14-.13.32-.2.53-.2s.37.07.51.2c.14.13.21.29.21.48s-.07.35-.21.48c-.14.13-.31.2-.51.2s-.38-.07-.53-.2Zm1.05,1.16v5.95h-1.09v-5.95h1.09Z"/>
        <path class="cls-3" d="m406.32,97.77c.43.22.74.51.95.85v-1.09h1.1v6.08c0,.54-.13,1.03-.38,1.45-.25.42-.62.75-1.09.99s-1.03.36-1.65.36c-.86,0-1.58-.18-2.15-.55-.57-.37-.91-.87-1.01-1.51h1.07c.12.36.37.65.74.87s.82.33,1.35.33c.6,0,1.09-.17,1.46-.51.38-.34.57-.82.57-1.43v-1.25c-.21.35-.53.64-.96.87-.42.23-.92.35-1.48.35s-1.11-.13-1.58-.39c-.47-.26-.85-.63-1.12-1.1-.27-.47-.41-1.01-.41-1.61s.14-1.14.41-1.6c.27-.46.64-.82,1.12-1.07.47-.25,1-.38,1.58-.38s1.06.11,1.49.34Zm.65,1.55c-.2-.33-.47-.59-.81-.77-.34-.18-.71-.27-1.12-.27s-.78.09-1.11.26c-.33.17-.6.43-.8.76s-.3.72-.3,1.17.1.85.3,1.19.47.59.8.77c.33.18.7.27,1.11.27s.78-.09,1.12-.27c.34-.18.61-.43.81-.77.2-.34.3-.73.3-1.18s-.1-.84-.3-1.17Z"/>
        <path class="cls-3" d="m416.15,100.88h-5.23c.04.59.26,1.04.66,1.37.4.33.89.49,1.46.49.47,0,.86-.1,1.18-.3.31-.2.54-.47.66-.8h1.17c-.18.57-.53,1.04-1.05,1.4-.53.36-1.18.54-1.96.54-.62,0-1.18-.13-1.67-.38-.49-.25-.87-.61-1.15-1.08s-.42-1.01-.42-1.62.14-1.15.41-1.62c.27-.46.65-.82,1.14-1.07.49-.25,1.05-.37,1.69-.37s1.17.12,1.65.37c.48.25.85.58,1.1,1.02s.39.92.39,1.46c0,.19-.01.39-.04.6Zm-1.36-1.78c-.18-.27-.43-.48-.75-.62-.31-.14-.66-.21-1.04-.21-.55,0-1.02.16-1.4.48-.39.32-.61.76-.66,1.32h4.13c0-.38-.09-.7-.27-.97Z"/>
        <path class="cls-3" d="m422.74,98.08c.49.44.74,1.07.74,1.89v3.51h-1.07v-3.37c0-.59-.16-1.05-.49-1.36-.33-.32-.77-.47-1.34-.47s-1.03.16-1.37.49c-.34.33-.51.8-.51,1.42v3.29h-1.09v-5.95h1.09v.85c.21-.3.51-.54.88-.71.37-.17.78-.25,1.22-.25.8,0,1.44.22,1.93.66Z"/>
        <path class="cls-3" d="m425.26,98.88c.27-.46.65-.82,1.13-1.07.48-.25,1.03-.38,1.65-.38.8,0,1.47.18,1.99.53.52.35.87.85,1.03,1.48h-1.17c-.11-.36-.33-.65-.65-.86s-.72-.32-1.2-.32c-.62,0-1.12.19-1.5.58-.38.39-.57.94-.57,1.65s.19,1.27.57,1.66c.38.39.88.59,1.5.59.48,0,.88-.1,1.19-.3.32-.2.54-.49.66-.87h1.17c-.18.61-.53,1.1-1.05,1.46-.53.37-1.18.55-1.97.55-.62,0-1.17-.13-1.65-.38-.48-.25-.86-.61-1.13-1.08-.27-.46-.41-1.01-.41-1.63s.14-1.15.41-1.61Z"/>
        <path class="cls-3" d="m438.45,100.88h-5.23c.04.59.26,1.04.66,1.37.4.33.89.49,1.46.49.47,0,.86-.1,1.18-.3.31-.2.54-.47.66-.8h1.17c-.18.57-.53,1.04-1.05,1.4s-1.18.54-1.96.54c-.62,0-1.18-.13-1.67-.38-.49-.25-.87-.61-1.15-1.08-.28-.47-.42-1.01-.42-1.62s.14-1.15.41-1.62c.27-.46.65-.82,1.14-1.07.49-.25,1.05-.37,1.69-.37s1.17.12,1.65.37c.48.25.85.58,1.11,1.02.26.43.39.92.39,1.46,0,.19-.01.39-.04.6Zm-1.36-1.78c-.18-.27-.43-.48-.75-.62-.31-.14-.66-.21-1.05-.21-.55,0-1.02.16-1.4.48-.39.32-.61.76-.66,1.32h4.13c0-.38-.09-.7-.27-.97Z"/>
      </g>
    </g>
  </g>
</svg>