<svg width="102" height="26" viewBox="0 0 102 26" fill="none" xmlns="http://www.w3.org/2000/svg">
<g clip-path="url(#clip0_453_7201)">
<path d="M6.11755 17.6259C5.93246 17.6259 5.78017 17.7758 5.78017 17.9609L5.77549 21.4402C5.77549 21.6252 5.92543 21.7775 6.11052 21.7775L10.9721 21.7846C11.1572 21.7846 11.3095 21.6346 11.3095 21.4495L11.3141 17.9703C11.3141 17.7852 11.1642 17.6329 10.9791 17.6329L6.11755 17.6259ZM6.29796 18.6638L6.80637 19.0363L7.5561 19.6736L6.29327 20.913V18.6638H6.29796ZM6.64002 21.2598L7.93097 19.9922L8.10669 20.1422C8.22383 20.2429 8.37847 20.2968 8.54247 20.2968C8.70648 20.2968 8.86345 20.2429 8.9806 20.1422L9.15632 19.9922L10.4426 21.2621L6.63768 21.2574L6.64002 21.2598ZM10.7917 20.92L9.53353 19.6783L10.7964 18.6708V20.92H10.7917ZM8.6315 19.8235C8.61042 19.8423 8.57761 19.8516 8.54481 19.8516C8.50967 19.8516 8.47921 19.8423 8.45813 19.8235L6.29796 18.1483L10.794 18.1554L8.6315 19.8259V19.8235ZM15.8196 20.5733C14.5708 21.644 13.1908 22.5835 11.6539 23.1692C10.1169 23.7526 8.41127 23.9658 6.81106 23.5839C5.23193 23.2067 3.82618 22.2672 2.70861 21.0911C1.58869 19.9173 0.735873 18.5138 0.00488281 17.0659C0.885819 17.3447 1.84642 17.2721 2.74375 17.0472C3.64109 16.8246 4.49391 16.4567 5.36548 16.1428C7.22575 15.4727 9.28752 15.0533 11.1712 15.6555C12.9682 16.2271 14.3693 17.6587 15.426 19.2191C14.456 20.0414 13.1112 20.4022 11.86 20.175C12.3193 20.0578 12.7691 19.8868 13.1978 19.6806C14.6997 18.9543 12.3029 17.5509 11.614 17.2182C10.7378 16.7941 9.75376 16.5903 8.78145 16.6418C6.43619 16.7613 4.30648 18.2069 1.95888 18.2819C2.36654 19.0691 3.06473 19.9688 3.73715 20.5475C5.40531 21.9884 7.24684 22.8108 9.68347 22.6491C11.8811 22.5039 14.0975 21.9462 15.8219 20.5733H15.8196Z" fill="url(#paint0_linear_453_7201)"/>
<path d="M10.2013 10.0746C10.2833 10.1637 10.3208 10.2691 10.3114 10.3886C10.302 10.5104 10.2505 10.6088 10.1591 10.6908C10.0677 10.7728 9.96232 10.808 9.84517 10.8009C9.72568 10.7939 9.62728 10.7447 9.54762 10.6533C9.46796 10.5526 9.43048 10.4472 9.43516 10.3347C9.43985 10.2222 9.48905 10.1238 9.58277 10.0371C9.67648 9.95045 9.78191 9.91296 9.9014 9.92468C10.0209 9.93639 10.1193 9.98794 10.2036 10.077L10.2013 10.0746ZM13.0925 10.2574C13.0479 10.2386 12.9191 10.1777 12.7106 10.0723C12.502 9.96685 12.3263 9.88719 12.1904 9.83565C12.0522 9.78176 11.9374 9.74661 11.846 9.72787C11.7687 9.72084 11.7078 9.7349 11.6656 9.77004C11.6211 9.80519 11.593 9.85673 11.5766 9.92233C11.5602 9.99028 11.5555 10.0676 11.5578 10.1566C11.5602 10.2457 11.5696 10.3394 11.5789 10.4425C11.5906 10.5456 11.6024 10.644 11.6164 10.74C11.6305 10.8361 11.6398 10.9321 11.6445 11.0259C11.6492 11.1219 11.6492 11.1992 11.6398 11.2601C11.6305 11.3211 11.607 11.3726 11.5649 11.4148C11.5227 11.4523 11.4149 11.4523 11.2439 11.4171C11.2205 11.4124 11.183 11.4078 11.1338 11.396C10.9557 11.3586 10.8386 11.3445 10.7823 11.3515C10.6933 11.3632 10.6605 11.4148 10.6863 11.5038C10.7027 11.5554 10.7402 11.6678 10.8011 11.8389C10.862 12.0099 10.9042 12.1387 10.9323 12.2208L10.9932 12.291C11.0471 12.352 11.115 12.3848 11.1947 12.3941C11.2767 12.4012 11.3446 12.3777 11.4032 12.3215L13.1534 10.7752C13.2143 10.7213 13.2471 10.6557 13.2518 10.576C13.2565 10.4964 13.233 10.4237 13.1791 10.3605L13.0901 10.2597L13.0925 10.2574ZM13.9546 11.2344L11.7664 13.165C11.5813 13.3243 11.3704 13.3969 11.1314 13.3828C10.8925 13.3711 10.691 13.2727 10.5316 13.09L8.60108 10.9017C8.43942 10.7189 8.36679 10.5081 8.38319 10.2667C8.39725 10.0254 8.498 9.82393 8.6784 9.66227L10.8667 7.73169C11.0471 7.57237 11.258 7.50208 11.4993 7.51614C11.7406 7.5302 11.9421 7.63094 12.1037 7.81135L14.0343 9.99965C14.1936 10.1801 14.2639 10.3909 14.2499 10.6322C14.2358 10.8736 14.1374 11.0751 13.957 11.232L13.9546 11.2344ZM13.6665 10.5971C13.6712 10.5174 13.6477 10.4472 13.5938 10.3862L11.6633 8.19793C11.6141 8.13702 11.5485 8.10422 11.4641 8.09953C11.3798 8.09485 11.3095 8.11827 11.2509 8.16982L9.06264 10.1004C9.00172 10.159 8.96892 10.2269 8.96424 10.3066C8.95955 10.3862 8.98298 10.4565 9.03687 10.5174L10.9674 12.7057C11.019 12.769 11.0846 12.8018 11.1666 12.8041C11.2486 12.8065 11.3189 12.7807 11.3798 12.7292L13.5681 10.7986C13.629 10.7447 13.6618 10.6791 13.6665 10.5994V10.5971ZM16.3702 14.6223C16.6865 12.7643 16.6607 10.7611 15.7564 9.10699C14.8098 7.37088 13.0292 6.25096 11.2228 5.44733C10.377 5.07246 9.50545 4.74914 8.70183 4.28992C7.89821 3.83071 7.15316 3.22154 6.71035 2.41089C6.23942 3.96425 5.88564 5.56682 5.8833 7.19047C5.8833 8.81413 6.2488 10.4636 7.12739 11.8271C8.02004 13.2095 9.40002 14.2333 10.9135 14.873C12.4294 15.5126 14.0765 15.7867 15.7189 15.8757C13.5236 15.6766 11.5368 14.5496 9.84752 13.1345C7.97553 11.5671 7.21173 9.69975 7.00087 7.50677C6.91653 6.62348 7.03367 5.49185 7.28202 4.63902C9.02984 6.20644 11.5696 6.6352 13.3455 8.16748C14.0835 8.80241 14.6528 9.63181 14.9949 10.5432C15.262 11.2578 16.0258 13.9287 14.4373 13.4156C13.9851 13.2704 13.5423 13.0806 13.1299 12.8487C13.8773 13.8772 15.098 14.5473 16.3679 14.6223H16.3702Z" fill="url(#paint1_linear_453_7201)"/>
<path d="M19.8048 7.406C19.8329 7.31228 19.9313 7.26073 20.025 7.28885L21.9392 7.86287C22.0329 7.89098 22.0844 7.98939 22.0563 8.0831C22.0282 8.17682 21.9298 8.22836 21.8361 8.20025L19.9219 7.62623C19.8282 7.59812 19.7767 7.49971 19.8048 7.406ZM19.7884 8.07607L21.7025 8.65009C21.7962 8.67821 21.8947 8.62432 21.9228 8.5306C21.9509 8.43689 21.897 8.33848 21.8056 8.31037L19.8915 7.73635C19.7977 7.70823 19.6993 7.76212 19.6712 7.8535C19.6431 7.94721 19.697 8.04562 19.7884 8.07373V8.07607ZM21.7869 8.98279C21.815 8.88907 21.7611 8.79067 21.6697 8.76255L19.7556 8.18853C19.6619 8.16042 19.5634 8.21431 19.5353 8.30568C19.5072 8.3994 19.5611 8.4978 19.6525 8.52592L21.5666 9.09994C21.6604 9.12805 21.7588 9.07416 21.7869 8.98279ZM21.4636 10.4354L19.1558 9.7419C18.7013 9.60601 18.4435 9.12571 18.5794 8.67118L19.6173 5.21067C19.7532 4.75614 20.2335 4.49842 20.688 4.63431L21.8548 4.98575L21.8665 4.99277C21.8829 4.9998 21.897 5.00917 21.9111 5.01855L21.9298 5.0326C21.9556 5.05603 21.9743 5.07946 21.9884 5.10523L23.2161 7.38491V7.39194C23.2231 7.41068 23.2278 7.42943 23.2325 7.45051V7.45988V7.47628C23.2325 7.49268 23.2325 7.50908 23.2301 7.52783V7.5372L23.2231 7.56063L22.5319 9.86139C22.396 10.3159 21.9157 10.5736 21.4612 10.4378L21.4636 10.4354ZM19.3034 9.24754L21.6112 9.94105C21.7939 9.99494 21.986 9.89185 22.0399 9.71144L22.6561 7.65669L21.7424 7.38257C21.2878 7.24668 21.0301 6.76637 21.166 6.31185L21.4401 5.3981L20.5404 5.12866C20.3577 5.07478 20.1656 5.17787 20.1117 5.35827L19.0738 8.81878C19.0199 9.00153 19.123 9.19365 19.3034 9.24754ZM24.9545 4.96934C24.8022 4.05794 24.5937 3.15123 24.5328 2.22811C24.4742 1.305 24.5726 0.346737 25.006 -0.470947C23.4503 -0.00938935 21.9157 0.578687 20.5615 1.469C19.205 2.35932 18.0288 3.5753 17.3752 5.06072C16.7121 6.56488 16.6161 8.28225 16.916 9.89888C17.2158 11.5155 17.8929 13.0431 18.7223 14.4629C17.6821 12.5206 17.5275 10.2409 17.7805 8.05265C18.0593 5.62771 19.198 3.96188 20.913 2.57955C21.6041 2.02193 22.6139 1.49712 23.4621 1.23705C23.1153 3.5589 24.1556 5.91355 23.8533 8.24242C23.7292 9.20771 23.3519 10.1402 22.7779 10.9251C22.3281 11.5436 20.517 13.6499 20.0719 12.0427C19.9453 11.5858 19.8587 11.1125 19.8259 10.6392C19.3784 11.8295 19.4908 13.2165 20.1281 14.3176C21.8548 13.5585 23.5113 12.4339 24.3969 10.7704C25.3247 9.02262 25.2825 6.92101 24.9568 4.97169L24.9545 4.96934Z" fill="url(#paint2_linear_453_7201)"/>
<path d="M23.7274 25.0394C25.615 23.8121 25.7559 20.6802 24.042 18.044C22.3281 15.4079 19.4085 14.2657 17.5209 15.493C15.6332 16.7202 15.4924 19.8521 17.2063 22.4883C18.9202 25.1245 21.8398 26.2666 23.7274 25.0394Z" fill="#010101"/>
<path d="M23.7462 24.8541C25.623 23.6339 25.763 20.52 24.059 17.899C22.355 15.278 19.4522 14.1425 17.5754 15.3627C15.6987 16.5829 15.5586 19.6967 17.2627 22.3177C18.9667 24.9387 21.8695 26.0743 23.7462 24.8541Z" fill="url(#paint3_radial_453_7201)"/>
<path d="M22.3261 19.6665C22.9189 19.3713 23.4835 19.0199 24.0224 18.6309C24.1044 18.57 24.1911 18.5067 24.2356 18.4154C24.3715 18.1459 23.9474 17.6961 23.8139 17.4852C23.7811 17.4313 23.7506 17.3728 23.7084 17.3236C21.7381 14.9431 18.9594 14.2426 17.4997 15.7585C16.4641 16.8339 16.3728 18.7364 17.1108 20.6013C18.6407 20.8591 20.2292 20.5592 21.649 19.9734C21.8763 19.8797 22.1012 19.7766 22.3238 19.6665H22.3261Z" fill="url(#paint4_linear_453_7201)"/>
<path d="M23.137 21.3098C23.9344 20.7914 23.9941 19.4689 23.2705 18.3558C22.5469 17.2428 21.3138 16.7607 20.5165 17.2791C19.7191 17.7975 19.6594 19.1201 20.383 20.2331C21.1067 21.3462 22.3397 21.8282 23.137 21.3098Z" fill="url(#paint5_radial_453_7201)"/>
<path d="M23.146 18.5065C22.572 17.6256 21.595 17.2437 20.9647 17.6537C20.3345 18.0637 20.2876 19.111 20.8593 19.9943C20.8827 20.0294 20.9061 20.0622 20.9296 20.095C22.3166 19.5234 23.1905 18.5839 23.1905 18.5839C23.1905 18.5839 23.16 18.5323 23.146 18.5089V18.5065Z" fill="url(#paint6_linear_453_7201)"/>
<path d="M21.5045 21.3274C21.7463 21.1028 21.6967 20.6564 21.3937 20.3302C21.0908 20.0041 20.6492 19.9218 20.4075 20.1464C20.1657 20.3709 20.2153 20.8174 20.5183 21.1435C20.8212 21.4696 21.2628 21.5519 21.5045 21.3274Z" fill="white"/>
<path d="M31.2307 20.8707V9.81543H33.638V18.7331H37.851V20.8714H31.23L31.2307 20.8707Z" fill="black" fill-opacity="0.87"/>
<path d="M44.3302 19.477H44.251C44.177 19.6885 44.0792 19.8887 43.9581 20.0792C43.8364 20.269 43.6809 20.4386 43.4912 20.5858C43.3014 20.7337 43.0765 20.8503 42.818 20.9339C42.5595 21.0184 42.2607 21.061 41.923 21.061C41.0675 21.061 40.4205 20.7785 39.9827 20.2137C39.5441 19.6489 39.3252 18.8383 39.3252 17.7826V12.5557H41.6697V17.5764C41.6697 18.0829 41.7593 18.4737 41.9387 18.7486C42.118 19.0235 42.4243 19.1603 42.8576 19.1603C43.0369 19.1603 43.2162 19.1341 43.3963 19.0811C43.5756 19.028 43.734 18.9518 43.8715 18.8517C44.0082 18.7516 44.1195 18.6276 44.2039 18.4796C44.2884 18.3317 44.3309 18.1576 44.3309 17.9566V12.5557H46.6754V20.8712H44.3309V19.477H44.3302Z" fill="black" fill-opacity="0.87"/>
<path d="M48.8599 20.8703V12.5548H51.2043V13.9646H51.2992C51.4472 13.5208 51.7004 13.1435 52.0598 12.8319C52.4184 12.5204 52.91 12.365 53.5331 12.365C54.1032 12.365 54.5888 12.5077 54.99 12.7923C55.3913 13.0777 55.6819 13.4946 55.8612 14.0438H55.909C55.983 13.8114 56.0965 13.5925 56.2497 13.3863C56.4029 13.1801 56.5904 13.0038 56.8123 12.8559C57.0342 12.7079 57.2822 12.5891 57.5564 12.4995C57.8306 12.4098 58.1265 12.365 58.4433 12.365C59.2457 12.365 59.8606 12.6504 60.2887 13.2205C60.716 13.7905 60.9305 14.6041 60.9305 15.6598V20.871H58.586V15.8503C58.586 14.7946 58.2057 14.2664 57.4459 14.2664C57.0977 14.2664 56.7809 14.3665 56.4955 14.5675C56.2101 14.7685 56.0682 15.0741 56.0682 15.4865V20.8718H53.7237V15.8511C53.7237 14.7954 53.3434 14.2672 52.5835 14.2672C52.4147 14.2672 52.2481 14.2911 52.0845 14.3382C51.9208 14.386 51.7729 14.4622 51.6407 14.5675C51.5084 14.6736 51.4031 14.8029 51.3239 14.9553C51.2447 15.1084 51.2051 15.2855 51.2051 15.4857V20.871H48.8606L48.8599 20.8703Z" fill="black" fill-opacity="0.87"/>
<path d="M66.4882 21.0608C65.8547 21.0608 65.2898 20.9577 64.7937 20.7522C64.2976 20.546 63.8778 20.2561 63.5348 19.8811C63.1919 19.5068 62.9326 19.0495 62.7586 18.5109C62.5845 17.9722 62.4971 17.3707 62.4971 16.705C62.4971 16.0394 62.5815 15.4566 62.7503 14.9232C62.9192 14.3905 63.1702 13.9332 63.5027 13.5529C63.8352 13.1726 64.2446 12.8798 64.7302 12.6736C65.2159 12.4673 65.7702 12.365 66.3933 12.365C67.0799 12.365 67.6687 12.4815 68.1595 12.7132C68.6504 12.9455 69.0516 13.2571 69.3632 13.6478C69.6747 14.0386 69.9019 14.4898 70.0446 15.0023C70.1873 15.5149 70.2582 16.0506 70.2582 16.6102V17.3072H64.9208V17.4328C64.9208 17.9774 65.0687 18.4092 65.3645 18.7283C65.6604 19.048 66.1251 19.2072 66.7587 19.2072C67.2443 19.2072 67.6403 19.11 67.9466 18.9165C68.2529 18.723 68.5376 18.4899 68.8021 18.2172L69.9743 19.6786C69.6045 20.1127 69.1211 20.4511 68.5249 20.6947C67.9279 20.9383 67.2495 21.06 66.4897 21.06L66.4882 21.0608ZM66.4404 14.0916C65.9652 14.0916 65.5932 14.2477 65.3235 14.5586C65.0545 14.8701 64.9193 15.2848 64.9193 15.8018V15.9288H67.8338V15.7861C67.8338 15.2795 67.7202 14.8701 67.4931 14.5586C67.266 14.247 66.9148 14.0916 66.4397 14.0916H66.4404Z" fill="black" fill-opacity="0.87"/>
<path d="M71.9216 20.8703V12.5548H74.2661V13.9646H74.361C74.5089 13.532 74.7674 13.1569 75.1373 12.8402C75.5071 12.5234 76.0189 12.365 76.6734 12.365C77.5288 12.365 78.1751 12.6504 78.6137 13.2204C79.0515 13.7905 79.2711 14.6041 79.2711 15.6598V20.871H76.9267V15.8503C76.9267 15.3117 76.8422 14.9134 76.6734 14.6542C76.5045 14.3957 76.2034 14.2664 75.7708 14.2664C75.5811 14.2664 75.3958 14.2903 75.2165 14.3374C75.0364 14.3852 74.8758 14.4614 74.7331 14.5668C74.5904 14.6729 74.4768 14.8021 74.3924 14.9545C74.308 15.1077 74.2654 15.2848 74.2654 15.485V20.8703H71.9209H71.9216Z" fill="black" fill-opacity="0.87"/>
<path d="M92.0364 20.8704L91.2444 18.2413H87.5536L86.7616 20.8704H84.3223L87.9653 9.81445H90.9433L94.5385 20.8704H92.0356H92.0364ZM89.4229 12.0005H89.3437L88.1244 16.1979H90.6586L89.4229 12.0005Z" fill="black" fill-opacity="0.87"/>
<path d="M95.6479 20.8702V18.9538H97.0735V11.7313H95.6479V9.81494H100.906V11.7313H99.4807V18.9538H100.906V20.8702H95.6479Z" fill="black" fill-opacity="0.87"/>
</g>
<defs>
<linearGradient id="paint0_linear_453_7201" x1="1.39423" y1="18.385" x2="14.0343" y2="20.3952" gradientUnits="userSpaceOnUse">
<stop stop-color="#94D9F4"/>
<stop offset="0.22" stop-color="#68A2D7"/>
<stop offset="0.87" stop-color="#243771"/>
</linearGradient>
<linearGradient id="paint1_linear_453_7201" x1="7.07819" y1="4.96469" x2="14.6599" y2="14.4441" gradientUnits="userSpaceOnUse">
<stop stop-color="#94D9F4"/>
<stop offset="0.22" stop-color="#68A2D7"/>
<stop offset="0.88" stop-color="#243771"/>
</linearGradient>
<linearGradient id="paint2_linear_453_7201" x1="23.373" y1="0.686462" x2="18.9917" y2="13.5445" gradientUnits="userSpaceOnUse">
<stop stop-color="#94D9F4"/>
<stop offset="0.22" stop-color="#68A2D7"/>
<stop offset="0.84" stop-color="#243771"/>
</linearGradient>
<radialGradient id="paint3_radial_453_7201" cx="0" cy="0" r="1" gradientUnits="userSpaceOnUse" gradientTransform="translate(18.2844 22.2706) rotate(-37.0502) scale(3.97458 4.99287)">
<stop offset="0.33" stop-color="white"/>
<stop offset="0.78" stop-color="#F4F3FA"/>
<stop offset="0.99" stop-color="#C2DAF2"/>
</radialGradient>
<linearGradient id="paint4_linear_453_7201" x1="21.7078" y1="16.3702" x2="18.046" y2="20.1545" gradientUnits="userSpaceOnUse">
<stop stop-color="white" stop-opacity="0.06"/>
<stop offset="1" stop-color="white" stop-opacity="0.71"/>
</linearGradient>
<radialGradient id="paint5_radial_453_7201" cx="0" cy="0" r="1" gradientUnits="userSpaceOnUse" gradientTransform="translate(18.3914 23.1354) rotate(-37.0502) scale(2.32181 3.07017)">
<stop offset="0.19" stop-color="#64A0D6"/>
<stop offset="1" stop-color="#160E3E"/>
</radialGradient>
<linearGradient id="paint6_linear_453_7201" x1="22.4384" y1="17.7193" x2="20.5359" y2="19.7202" gradientUnits="userSpaceOnUse">
<stop stop-color="white" stop-opacity="0"/>
<stop offset="1" stop-color="white" stop-opacity="0.75"/>
</linearGradient>
<clipPath id="clip0_453_7201">
<rect width="101" height="26" fill="white"/>
</clipPath>
</defs>
</svg>
