<svg xmlns="http://www.w3.org/2000/svg" version="1.1" xmlns:xlink="http://www.w3.org/1999/xlink" xmlns:svgjs="http://svgjs.com/svgjs" width="1000" height="1000"><style>
    #light-icon {
      display: inline;
    }
    #dark-icon {
      display: none;
    }

    @media (prefers-color-scheme: dark) {
      #light-icon {
        display: none;
      }
      #dark-icon {
        display: inline;
      }
    }
  </style><g id="light-icon"><svg xmlns="http://www.w3.org/2000/svg" version="1.1" xmlns:xlink="http://www.w3.org/1999/xlink" xmlns:svgjs="http://svgjs.com/svgjs" width="1000" height="1000"><rect width="1000" height="1000" rx="200" ry="200" fill="#ffffff"></rect><g transform="matrix(25,0,0,25,111.22166442871094,100.04943848389667)"><svg xmlns="http://www.w3.org/2000/svg" version="1.1" xmlns:xlink="http://www.w3.org/1999/xlink" xmlns:svgjs="http://svgjs.com/svgjs" width="32" height="32"><svg width="32" height="32" viewBox="0 0 32 32" fill="none" xmlns="http://www.w3.org/2000/svg">
<g clip-path="url(#clip0_39_11902)">
<path d="M29.1938 31.3892C31.516 29.8795 31.6887 26.0258 29.5797 22.7819C27.4706 19.5379 23.8784 18.1321 21.5562 19.6418C19.234 21.1516 19.0613 25.0052 21.1704 28.2492C23.2794 31.4932 26.8717 32.899 29.1938 31.3892Z" fill="#0E003F"></path>
<path d="M29.2146 31.1613C31.5232 29.6604 31.6948 25.8291 29.5979 22.6039C27.501 19.3787 23.9297 17.9808 21.6211 19.4817C19.3126 20.9826 19.141 24.8139 21.2379 28.0391C23.3348 31.2644 26.9061 32.6622 29.2146 31.1613Z" fill="url(#paint0_radial_39_11902)"></path>
<path d="M27.4685 24.7798C28.1986 24.4175 28.8938 23.9835 29.554 23.5063C29.6561 23.4327 29.7609 23.3536 29.817 23.2414C29.9853 22.9095 29.4621 22.3559 29.2993 22.0966C29.2579 22.0304 29.2202 21.9568 29.1706 21.8962C26.7476 18.9683 23.3278 18.1058 21.5319 19.9697C20.2575 21.2929 20.1453 23.635 21.0538 25.9293C22.9352 26.2465 24.8901 25.8778 26.6381 25.1559C26.9186 25.0401 27.1954 24.9141 27.4676 24.7789L27.4685 24.7798Z" fill="url(#paint1_linear_39_11902)"></path>
<path d="M28.4647 26.8017C29.4452 26.1642 29.5182 24.537 28.6277 23.1673C27.7372 21.7976 26.2204 21.204 25.2398 21.8415C24.2593 22.479 24.1863 24.1062 25.0768 25.4759C25.9673 26.8456 27.4841 27.4392 28.4647 26.8017Z" fill="url(#paint2_radial_39_11902)"></path>
<path d="M28.4772 23.351C27.7719 22.2659 26.5701 21.796 25.7931 22.3009C25.0161 22.8057 24.959 24.0949 25.6643 25.1799C25.6919 25.2232 25.7223 25.2636 25.7517 25.305C27.4574 24.6006 28.5333 23.4448 28.5333 23.4448C28.5333 23.4448 28.4974 23.3822 28.4772 23.351Z" fill="url(#paint3_linear_39_11902)"></path>
<path d="M26.4543 26.8213C26.7512 26.5455 26.6899 25.9967 26.3173 25.5956C25.9447 25.1945 25.4019 25.0929 25.105 25.3687C24.8081 25.6446 24.8694 26.1933 25.242 26.5944C25.6146 26.9955 26.1574 27.0971 26.4543 26.8213Z" fill="white"></path>
<path d="M7.52276 22.2678C7.29379 22.2678 7.10897 22.4526 7.10805 22.6806L7.10253 26.9602C7.10253 27.1891 7.28736 27.374 7.5154 27.3749L13.4979 27.3832C13.7269 27.3832 13.9117 27.1983 13.9126 26.9703L13.9182 22.6908C13.9182 22.4618 13.7333 22.277 13.5053 22.276L7.52276 22.2678ZM7.74529 23.545L8.3715 24.002L9.29471 24.7873L7.74161 26.311L7.74529 23.5441V23.545ZM8.16644 26.7376L9.7554 25.179L9.97241 25.3639C10.1168 25.4862 10.3071 25.5542 10.5094 25.5542C10.7117 25.5542 10.903 25.4871 11.0474 25.3648L11.2644 25.1809L12.8487 26.7432L8.16736 26.7367L8.16644 26.7376ZM13.2745 26.3193L11.726 24.791L13.2782 23.5524L13.2745 26.3193ZM10.6179 24.9694C10.5913 24.9914 10.5517 25.0043 10.5103 25.0043C10.468 25.0043 10.4294 24.9914 10.4028 24.9694L7.74621 22.9068L13.2791 22.9142L10.6179 24.9694ZM19.4612 25.8926C17.9246 27.2094 16.2262 28.3671 14.3347 29.0852C12.4432 29.8043 10.3448 30.0664 8.37701 29.5947C6.43586 29.1294 4.70529 27.9735 3.32782 26.5289C1.95034 25.0834 0.902069 23.3565 0 21.5753C1.08506 21.9183 2.26667 21.8282 3.37012 21.5533C4.47448 21.2783 5.5246 20.8259 6.59586 20.4406C8.88644 19.6167 11.4207 19.1009 13.7398 19.8402C15.9503 20.5445 17.6754 22.3036 18.9747 24.2255C17.7812 25.237 16.1269 25.6802 14.5876 25.4006C15.1531 25.2553 15.7076 25.0466 16.2336 24.7928C18.0818 23.8999 15.1329 22.173 14.286 21.7639C13.2074 21.2434 11.9963 20.9924 10.8 21.0531C7.9154 21.2011 5.29287 22.9795 2.40552 23.0705C2.90851 24.0397 3.76644 25.1459 4.5931 25.8595C6.6446 27.6314 8.91218 28.6439 11.9099 28.4462C14.6152 28.2678 17.3407 27.5809 19.4621 25.8926H19.4612Z" fill="url(#paint4_linear_39_11902)"></path>
<path d="M12.5491 12.9766C12.6512 13.0861 12.6953 13.2148 12.6834 13.3638C12.6714 13.5127 12.6098 13.6359 12.4976 13.7352C12.3854 13.8346 12.2567 13.8787 12.1105 13.8695C11.9643 13.8603 11.842 13.7996 11.7436 13.6874C11.6452 13.5642 11.5992 13.4346 11.6048 13.2957C11.6103 13.1578 11.671 13.0355 11.7868 12.9288C11.9018 12.8221 12.0323 12.7762 12.1786 12.79C12.3238 12.8047 12.448 12.8663 12.55 12.9757L12.5491 12.9766ZM16.1059 13.2028C16.0507 13.1808 15.8935 13.1044 15.636 12.9739C15.3786 12.8442 15.1643 12.7467 14.9951 12.6815C14.825 12.6162 14.6843 12.5729 14.5721 12.549C14.4774 12.5408 14.4029 12.5573 14.3487 12.6005C14.2944 12.6428 14.2576 12.7063 14.2392 12.789C14.2209 12.8718 14.2135 12.9684 14.2172 13.0769C14.2209 13.1854 14.23 13.3031 14.2438 13.429C14.2576 13.555 14.2733 13.6764 14.2898 13.7941C14.3073 13.9118 14.3183 14.0295 14.3248 14.1463C14.3312 14.2631 14.3294 14.3596 14.3192 14.435C14.3091 14.5104 14.2779 14.5739 14.2264 14.6244C14.1749 14.6704 14.0434 14.6713 13.831 14.6281C13.8015 14.6235 13.7556 14.6152 13.694 14.6033C13.4742 14.5573 13.3298 14.5389 13.2618 14.5481C13.1523 14.5628 13.1128 14.6254 13.1441 14.7366C13.1643 14.8001 13.2112 14.938 13.2857 15.1486C13.3592 15.3592 13.4135 15.5164 13.4475 15.6185L13.5238 15.7049C13.59 15.7794 13.6728 15.8217 13.7721 15.83C13.8723 15.8392 13.9579 15.8088 14.0305 15.7398L16.185 13.8382C16.2595 13.772 16.2999 13.6911 16.3064 13.5936C16.3128 13.4962 16.2825 13.4079 16.2172 13.3279L16.1068 13.2028H16.1059ZM17.1671 14.4047L14.4746 16.7817C14.2484 16.9766 13.9873 17.0658 13.6921 17.0502C13.3969 17.0346 13.1505 16.915 12.9528 16.6906L10.5758 13.9982C10.3781 13.7739 10.2889 13.5136 10.3073 13.2157C10.3257 12.9187 10.4471 12.6704 10.6714 12.4727L13.3638 10.0957C13.5854 9.90077 13.8438 9.81249 14.1418 9.83088C14.4388 9.84927 14.6871 9.97065 14.8848 10.195L17.2618 12.8874C17.4567 13.109 17.545 13.3674 17.5266 13.6654C17.5082 13.9624 17.3877 14.2088 17.1671 14.4047ZM16.813 13.6212C16.8195 13.5238 16.7891 13.4382 16.7229 13.3628L14.3459 10.6704C14.2852 10.5959 14.2034 10.5555 14.1013 10.549C13.9983 10.5426 13.911 10.5711 13.8392 10.6346L11.1468 13.0116C11.0714 13.0833 11.031 13.167 11.0254 13.2644C11.019 13.3619 11.0494 13.4474 11.1156 13.5228L13.4926 16.2152C13.556 16.2925 13.6369 16.3329 13.7372 16.3366C13.8374 16.3403 13.9248 16.309 13.9992 16.2428L16.6917 13.8658C16.7661 13.7996 16.8066 13.7187 16.813 13.6212ZM20.1409 18.5748C20.5289 16.2879 20.4976 13.8244 19.3868 11.7877C18.2209 9.65065 16.0323 8.27226 13.808 7.28559C12.768 6.82399 11.6958 6.42582 10.7073 5.86123C9.71878 5.29755 8.80292 4.54628 8.25579 3.54858C7.67648 5.45939 7.24154 7.43272 7.23878 9.42904C7.23602 11.4254 7.68752 13.4566 8.76982 15.1339C9.86683 16.8341 11.5652 18.0948 13.4291 18.8819C15.293 19.669 17.3206 20.0065 19.3418 20.1159C16.642 19.8704 14.1969 18.4838 12.1179 16.7431C9.81441 14.8148 8.87464 12.5159 8.61625 9.81709C8.51235 8.73019 8.65671 7.33801 8.962 6.28973C11.1119 8.21893 14.2365 8.7449 16.4241 10.6318C17.3317 11.4143 18.0333 12.4323 18.4526 13.5541C18.7818 14.435 19.7206 17.7215 17.7675 17.0897C17.2121 16.9104 16.6668 16.6778 16.1583 16.3918C17.0779 17.6571 18.5804 18.481 20.1418 18.5739L20.1409 18.5748Z" fill="url(#paint5_linear_39_11902)"></path>
<path d="M24.3641 9.69207C24.3982 9.57713 24.5195 9.51184 24.6345 9.54679L26.9903 10.2539C27.1053 10.2879 27.1706 10.4093 27.1356 10.5243C27.1016 10.6392 26.9802 10.7045 26.8653 10.6695L24.5094 9.96242C24.3945 9.9284 24.3292 9.80702 24.3641 9.69207ZM24.343 10.5169L26.6988 11.224C26.8138 11.2581 26.9342 11.1937 26.9692 11.0787C27.0032 10.9638 26.9388 10.8433 26.8239 10.8084L24.468 10.1013C24.3531 10.0672 24.2326 10.1316 24.1977 10.2466C24.1637 10.3615 24.228 10.4829 24.343 10.5169ZM26.8027 11.6323C26.8368 11.5174 26.7724 11.3969 26.6575 11.362L24.3016 10.6548C24.1867 10.6208 24.0662 10.6852 24.0313 10.8001C23.9972 10.9151 24.0616 11.0355 24.1765 11.0705L26.5324 11.7776C26.6473 11.8116 26.7678 11.7472 26.8027 11.6323ZM26.4037 13.4199L23.5641 12.5684C23.005 12.4001 22.686 11.8089 22.8542 11.2498L24.1324 6.99047C24.3007 6.43139 24.8919 6.11322 25.451 6.28058L26.8883 6.71185L26.9021 6.72012C26.9214 6.72932 26.9398 6.73943 26.9572 6.75139L26.9802 6.76886C27.0124 6.79644 27.0354 6.82587 27.0529 6.85805L28.5627 9.66173V9.67001C28.5719 9.69207 28.5784 9.71598 28.5821 9.74173L28.5839 9.75276V9.77391C28.5857 9.79506 28.5839 9.81529 28.5811 9.83644V9.8484L28.5729 9.87782L27.7232 12.7091C27.5549 13.2682 26.9646 13.5872 26.4046 13.419L26.4037 13.4199ZM23.7471 11.9587L26.5867 12.8102C26.8101 12.8774 27.0464 12.7495 27.1136 12.5261L27.8722 9.9992L26.7494 9.66265C26.1903 9.49529 25.8722 8.90311 26.0395 8.34403L26.3761 7.22127L25.269 6.88932C25.0455 6.82219 24.8092 6.95001 24.7421 7.17345L23.4639 11.4318C23.3968 11.6553 23.5246 11.8916 23.748 11.9587H23.7471ZM30.7007 6.69345C30.5131 5.5707 30.2565 4.45621 30.183 3.32058C30.1103 2.18495 30.2326 1.00702 30.7641 0.00012207C28.8506 0.568398 26.9627 1.29116 25.2947 2.38725C23.6267 3.48426 22.1793 4.97851 21.3747 6.80564C20.5591 8.65759 20.4405 10.7689 20.8101 12.7587C21.1788 14.7486 22.0138 16.6272 23.0336 18.3744C21.7526 15.9854 21.5641 13.1808 21.8731 10.4875C22.2152 7.50265 23.6165 5.45299 25.7278 3.75185C26.5775 3.06679 27.8198 2.42035 28.8634 2.09943C28.4359 4.95644 29.7168 7.85483 29.3453 10.7192C29.1917 11.9072 28.7273 13.0539 28.0221 14.0213C27.4685 14.7808 25.2414 17.3739 24.6933 15.3951C24.5379 14.8323 24.4322 14.2493 24.3899 13.6672C23.8391 15.1312 23.9788 16.8387 24.7604 18.1941C26.8837 17.2599 28.9232 15.8778 30.0119 13.8291C31.154 11.6801 31.1007 9.09345 30.6998 6.69253L30.7007 6.69345Z" fill="url(#paint6_linear_39_11902)"></path>
</g>
<defs>
<radialGradient id="paint0_radial_39_11902" cx="0" cy="0" r="1" gradientUnits="userSpaceOnUse" gradientTransform="translate(22.8734 27.6637) rotate(-37.05) scale(4.88896 6.1415)">
<stop offset="0.33" stop-color="white"></stop>
<stop offset="0.78" stop-color="#F4F4FF"></stop>
<stop offset="0.99" stop-color="#BFD6FF"></stop>
</radialGradient>
<linearGradient id="paint1_linear_39_11902" x1="26.7024" y1="20.7211" x2="22.1986" y2="25.3773" gradientUnits="userSpaceOnUse">
<stop stop-color="white" stop-opacity="0.06"></stop>
<stop offset="1" stop-color="white" stop-opacity="0.71"></stop>
</linearGradient>
<radialGradient id="paint2_radial_39_11902" cx="0" cy="0" r="1" gradientUnits="userSpaceOnUse" gradientTransform="translate(23.0221 28.7074) rotate(-37.05) scale(2.85727 3.77821)">
<stop offset="0.19" stop-color="#911771"></stop>
<stop offset="1" stop-color="#0E003F"></stop>
</radialGradient>
<linearGradient id="paint3_linear_39_11902" x1="27.6073" y1="22.3818" x2="25.2652" y2="24.8452" gradientUnits="userSpaceOnUse">
<stop stop-color="white" stop-opacity="0"></stop>
<stop offset="1" stop-color="white" stop-opacity="0.75"></stop>
</linearGradient>
<linearGradient id="paint4_linear_39_11902" x1="1.7131" y1="23.202" x2="17.2634" y2="25.6756" gradientUnits="userSpaceOnUse">
<stop stop-color="#FFCD5E"></stop>
<stop offset="0.51" stop-color="#EB2F3E"></stop>
<stop offset="1" stop-color="#8845B8"></stop>
</linearGradient>
<linearGradient id="paint5_linear_39_11902" x1="8.70545" y1="6.68881" x2="18.0342" y2="18.3532" gradientUnits="userSpaceOnUse">
<stop stop-color="#FFCD5E"></stop>
<stop offset="0.51" stop-color="#EB2F3E"></stop>
<stop offset="1" stop-color="#8845B8"></stop>
</linearGradient>
<linearGradient id="paint6_linear_39_11902" x1="28.7568" y1="1.42449" x2="23.3655" y2="17.247" gradientUnits="userSpaceOnUse">
<stop stop-color="#FFCD5E"></stop>
<stop offset="0.51" stop-color="#EB2F3E"></stop>
<stop offset="1" stop-color="#8845B8"></stop>
</linearGradient>
<clipPath id="clip0_39_11902">
<rect width="31.0805" height="32" fill="white"></rect>
</clipPath>
</defs>
</svg></svg></g></svg></g><g id="dark-icon"><svg xmlns="http://www.w3.org/2000/svg" version="1.1" xmlns:xlink="http://www.w3.org/1999/xlink" xmlns:svgjs="http://svgjs.com/svgjs" width="1000" height="1000"><g transform="matrix(38.46153846153846,0,0,38.46153846153846,23.127880169795105,8.708917397719176)" style="filter: contrast(0.8333333333333334) brightness(1.7)"><svg xmlns="http://www.w3.org/2000/svg" version="1.1" xmlns:xlink="http://www.w3.org/1999/xlink" xmlns:svgjs="http://svgjs.com/svgjs" width="25" height="26"><svg width="25" height="26" viewBox="0 0 25 26" fill="none" xmlns="http://www.w3.org/2000/svg">
<g clip-path="url(#clip0_39_11891)">
<path d="M23.2989 25.051C25.1522 23.8461 25.2901 20.7706 23.6069 18.1816C21.9237 15.5927 19.0568 14.4707 17.2035 15.6756C15.3503 16.8805 15.2124 19.956 16.8956 22.545C18.5788 25.1339 21.4457 26.2559 23.2989 25.051Z" fill="#0E003F"></path>
<path d="M23.3153 24.8691C25.1577 23.6713 25.2947 20.6136 23.6212 18.0397C21.9477 15.4657 19.0975 14.3501 17.2551 15.5479C15.4127 16.7458 15.2758 19.8034 16.9493 22.3774C18.6228 24.9514 21.4729 26.067 23.3153 24.8691Z" fill="url(#paint0_radial_39_11891)"></path>
<path d="M21.9221 19.7762C22.5047 19.487 23.0595 19.1406 23.5865 18.7598C23.6679 18.701 23.7516 18.6379 23.7963 18.5484C23.9306 18.2835 23.5131 17.8417 23.3832 17.6347C23.3502 17.5819 23.3201 17.5232 23.2804 17.4748C21.3467 15.1381 18.6175 14.4498 17.1842 15.9373C16.1671 16.9933 16.0776 18.8625 16.8026 20.6935C18.3041 20.9467 19.8643 20.6524 21.2594 20.0763C21.4832 19.9838 21.7041 19.8833 21.9213 19.7754L21.9221 19.7762Z" fill="url(#paint1_linear_39_11891)"></path>
<path d="M22.7169 21.3898C23.4995 20.881 23.5578 19.5824 22.8471 18.4893C22.1363 17.3961 20.9258 16.9224 20.1433 17.4312C19.3607 17.94 19.3025 19.2386 20.0132 20.3317C20.7239 21.4248 21.9344 21.8986 22.7169 21.3898Z" fill="url(#paint2_radial_39_11891)"></path>
<path d="M22.727 18.6358C22.1641 17.7699 21.205 17.3949 20.5849 17.7977C19.9648 18.2006 19.9193 19.2295 20.4821 20.0955C20.5041 20.13 20.5284 20.1623 20.5518 20.1953C21.9132 19.6331 22.7718 18.7107 22.7718 18.7107C22.7718 18.7107 22.7432 18.6608 22.727 18.6358Z" fill="url(#paint3_linear_39_11891)"></path>
<path d="M21.1126 21.4053C21.3496 21.1852 21.3006 20.7472 21.0032 20.4271C20.7059 20.107 20.2727 20.026 20.0358 20.2461C19.7988 20.4662 19.8477 20.9042 20.1451 21.2243C20.4425 21.5444 20.8756 21.6254 21.1126 21.4053Z" fill="white"></path>
<path d="M6.00374 17.7714C5.82101 17.7714 5.6735 17.9189 5.67277 18.1009L5.66836 21.5163C5.66836 21.699 5.81587 21.8465 5.99787 21.8472L10.7724 21.8538C10.9551 21.8538 11.1026 21.7063 11.1034 21.5243L11.1078 18.1089C11.1078 17.9262 10.9603 17.7787 10.7783 17.778L6.00374 17.7714ZM6.18134 18.7907L6.6811 19.1554L7.4179 19.7821L6.1784 20.9982L6.18134 18.79V18.7907ZM6.51744 21.3387L7.78556 20.0948L7.95875 20.2423C8.07397 20.3399 8.22588 20.3942 8.38733 20.3942C8.54878 20.3942 8.70142 20.3406 8.81664 20.243L8.98983 20.0962L10.2543 21.3431L6.51818 21.3379L6.51744 21.3387ZM10.5941 21.0048L9.35823 19.7851L10.597 18.7966L10.5941 21.0048ZM8.47393 19.9274C8.45264 19.9451 8.42109 19.9553 8.38806 19.9553C8.35431 19.9553 8.32348 19.9451 8.3022 19.9274L6.18207 18.2814L10.5977 18.2873L8.47393 19.9274ZM15.5315 20.6642C14.3052 21.7151 12.9498 22.6391 11.4402 23.2122C9.93065 23.7861 8.25597 23.9953 6.6855 23.6188C5.13631 23.2474 3.75518 22.325 2.65585 21.1721C1.55653 20.0184 0.71992 18.6403 0 17.2188C0.865959 17.4925 1.80897 17.4206 2.68961 17.2011C3.57098 16.9817 4.40905 16.6207 5.26401 16.3132C7.09206 15.6556 9.11459 15.2439 10.9654 15.834C12.7296 16.3961 14.1063 17.8 15.1433 19.3338C14.1907 20.141 12.8705 20.4947 11.642 20.2716C12.0933 20.1557 12.5359 19.9891 12.9556 19.7865C14.4307 19.074 12.0772 17.6958 11.4013 17.3692C10.5405 16.9538 9.57399 16.7535 8.61923 16.8019C6.3171 16.9201 4.22412 18.3394 1.91979 18.412C2.32121 19.1855 3.00591 20.0683 3.66565 20.6378C5.3029 22.052 7.11261 22.86 9.505 22.7022C11.664 22.5598 13.8392 22.0116 15.5322 20.6642H15.5315Z" fill="url(#paint4_linear_39_11891)"></path>
<path d="M10.0152 10.3563C10.0966 10.4437 10.1319 10.5464 10.1223 10.6653C10.1128 10.7842 10.0636 10.8825 9.97408 10.9618C9.88455 11.041 9.7818 11.0763 9.66512 11.0689C9.54844 11.0616 9.45083 11.0131 9.37231 10.9236C9.29379 10.8253 9.25709 10.7218 9.26149 10.611C9.2659 10.5009 9.31433 10.4033 9.4068 10.3182C9.49853 10.233 9.60274 10.1964 9.71943 10.2074C9.83538 10.2191 9.93445 10.2683 10.0159 10.3556L10.0152 10.3563ZM12.8538 10.5369C12.8097 10.5193 12.6842 10.4583 12.4788 10.3541C12.2733 10.2507 12.1023 10.1729 11.9673 10.1208C11.8315 10.0687 11.7192 10.0342 11.6297 10.0151C11.5541 10.0085 11.4946 10.0217 11.4513 10.0562C11.408 10.0899 11.3787 10.1406 11.364 10.2066C11.3493 10.2727 11.3435 10.3497 11.3464 10.4363C11.3493 10.5229 11.3567 10.6169 11.3677 10.7174C11.3787 10.8179 11.3912 10.9148 11.4044 11.0087C11.4183 11.1027 11.4271 11.1966 11.4323 11.2898C11.4374 11.383 11.4359 11.4601 11.4279 11.5202C11.4198 11.5804 11.3948 11.6311 11.3537 11.6714C11.3126 11.7081 11.2077 11.7088 11.0382 11.6744C11.0147 11.6707 10.978 11.6641 10.9288 11.6545C10.7534 11.6178 10.6382 11.6032 10.5839 11.6105C10.4966 11.6222 10.465 11.6722 10.49 11.7609C10.5061 11.8116 10.5436 11.9217 10.603 12.0897C10.6617 12.2578 10.705 12.3833 10.7322 12.4647L10.7931 12.5337C10.8459 12.5932 10.912 12.6269 10.9912 12.6335C11.0712 12.6409 11.1395 12.6166 11.1974 12.5616L12.9169 11.044C12.9763 10.9911 13.0086 10.9265 13.0137 10.8488C13.0189 10.771 12.9947 10.7005 12.9426 10.6367L12.8545 10.5369H12.8538ZM13.7006 11.496L11.5519 13.3931C11.3714 13.5486 11.1629 13.6198 10.9274 13.6074C10.6918 13.5949 10.4951 13.4995 10.3373 13.3204L8.4403 11.1717C8.28252 10.9926 8.21134 10.7849 8.22601 10.5471C8.24069 10.3101 8.33756 10.112 8.51662 9.95418L10.6654 8.05714C10.8422 7.90156 11.0485 7.83111 11.2862 7.84579C11.5233 7.86046 11.7214 7.95733 11.8792 8.1364L13.7762 10.2851C13.9318 10.462 14.0023 10.6682 13.9876 10.906C13.9729 11.143 13.8768 11.3397 13.7006 11.496ZM13.4181 10.8708C13.4232 10.793 13.399 10.7247 13.3462 10.6646L11.4491 8.5158C11.4007 8.45636 11.3354 8.42407 11.2539 8.41893C11.1717 8.4138 11.102 8.43655 11.0448 8.48718L8.89603 10.3842C8.83585 10.4415 8.80356 10.5082 8.79916 10.586C8.79402 10.6638 8.81824 10.7321 8.87108 10.7922L10.7681 12.941C10.8188 13.0026 10.8833 13.0349 10.9633 13.0379C11.0433 13.0408 11.113 13.0159 11.1725 12.963L13.3212 11.066C13.3807 11.0131 13.413 10.9486 13.4181 10.8708ZM16.074 14.8241C16.3836 12.999 16.3587 11.033 15.4722 9.40745C14.5416 7.70195 12.7951 6.60189 11.0198 5.81445C10.1898 5.44605 9.33415 5.12829 8.54524 4.6777C7.75634 4.22784 7.02541 3.62827 6.58876 2.83203C6.12643 4.357 5.77931 5.93187 5.77711 7.52509C5.77491 9.11831 6.13524 10.7394 6.99899 12.078C7.87449 13.4349 9.22994 14.441 10.7175 15.0692C12.205 15.6974 13.8232 15.9667 15.4362 16.0541C13.2816 15.8581 11.3303 14.7514 9.67099 13.3622C7.83266 11.8233 7.08265 9.98867 6.87644 7.83478C6.79351 6.96735 6.90873 5.85628 7.15237 5.01968C8.86814 6.55932 11.3618 6.97909 13.1077 8.48498C13.832 9.1095 14.3919 9.92189 14.7266 10.8172C14.9893 11.5202 15.7386 14.1431 14.1799 13.6389C13.7366 13.4958 13.3014 13.3101 12.8956 13.0819C13.6295 14.0917 14.8286 14.7492 16.0747 14.8234L16.074 14.8241Z" fill="url(#paint5_linear_39_11891)"></path>
<path d="M19.4445 7.73492C19.4717 7.64319 19.5686 7.59109 19.6603 7.61897L21.5404 8.18331C21.6322 8.21047 21.6843 8.30734 21.6564 8.39907C21.6292 8.4908 21.5324 8.54291 21.4406 8.51502L19.5605 7.95068C19.4688 7.92353 19.4166 7.82666 19.4445 7.73492ZM19.4277 8.3932L21.3078 8.95754C21.3995 8.98469 21.4957 8.93332 21.5236 8.84159C21.5507 8.74986 21.4993 8.65372 21.4076 8.62583L19.5275 8.06149C19.4357 8.03434 19.3396 8.08571 19.3117 8.17744C19.2845 8.26918 19.3359 8.36605 19.4277 8.3932ZM21.3907 9.28338C21.4179 9.19164 21.3665 9.09551 21.2748 9.06762L19.3946 8.50328C19.3029 8.47613 19.2068 8.5275 19.1789 8.61923C19.1517 8.71096 19.2031 8.8071 19.2948 8.83498L21.175 9.39933C21.2667 9.42648 21.3629 9.37511 21.3907 9.28338ZM21.0722 10.71L18.8061 10.0304C18.3599 9.89615 18.1052 9.42428 18.2395 8.97809L19.2596 5.57883C19.3939 5.13264 19.8658 4.87873 20.312 5.01229L21.459 5.35647L21.47 5.36308C21.4854 5.37041 21.5001 5.37849 21.514 5.38803L21.5324 5.40197C21.5581 5.42399 21.5764 5.44747 21.5904 5.47316L22.7954 7.71071V7.71731C22.8027 7.73492 22.8078 7.754 22.8108 7.77455L22.8122 7.78336V7.80024C22.8137 7.81712 22.8122 7.83326 22.81 7.85014V7.85968L22.8034 7.88316L22.1253 10.1427C21.991 10.5889 21.5199 10.8436 21.073 10.7093L21.0722 10.71ZM18.9521 9.5439L21.2183 10.2235C21.3966 10.277 21.5852 10.175 21.6388 9.99669L22.2442 7.98003L21.3482 7.71144C20.902 7.57788 20.6481 7.10527 20.7816 6.65908L21.0502 5.76303L20.1667 5.49811C19.9883 5.44454 19.7997 5.54654 19.7462 5.72487L18.7261 9.12339C18.6725 9.30172 18.7745 9.49032 18.9528 9.5439H18.9521ZM24.5016 5.34179C24.3519 4.44575 24.1471 3.5563 24.0884 2.64998C24.0304 1.74366 24.128 0.803581 24.5522 0C23.0251 0.453528 21.5184 1.03034 20.1872 1.90511C18.856 2.78061 17.7009 3.97314 17.0587 5.43133C16.4078 6.90933 16.3131 8.59428 16.6081 10.1824C16.9024 11.7704 17.5688 13.2697 18.3826 14.6641C17.3604 12.7575 17.2099 10.5192 17.4565 8.36972C17.7295 5.98759 18.8479 4.35181 20.5329 2.99416C21.2109 2.44744 22.2024 1.93153 23.0353 1.67541C22.6941 3.95553 23.7164 6.26866 23.4199 8.55465C23.2973 9.5028 22.9267 10.4179 22.3638 11.19C21.9221 11.7961 20.1446 13.8656 19.7073 12.2863C19.5832 11.8372 19.4988 11.372 19.4651 10.9074C19.0255 12.0757 19.137 13.4385 19.7608 14.5202C21.4553 13.7746 23.083 12.6716 23.9519 11.0366C24.8634 9.32154 24.8208 7.25718 24.5009 5.34106L24.5016 5.34179Z" fill="url(#paint6_linear_39_11891)"></path>
</g>
<defs>
<radialGradient id="paint0_radial_39_11891" cx="0" cy="0" r="1" gradientUnits="userSpaceOnUse" gradientTransform="translate(18.2546 22.0778) rotate(-37.05) scale(3.90176 4.90139)">
<stop offset="0.33" stop-color="white"></stop>
<stop offset="0.78" stop-color="#F4F4FF"></stop>
<stop offset="0.99" stop-color="#BFD6FF"></stop>
</radialGradient>
<linearGradient id="paint1_linear_39_11891" x1="21.3106" y1="16.537" x2="17.7163" y2="20.253" gradientUnits="userSpaceOnUse">
<stop stop-color="white" stop-opacity="0.06"></stop>
<stop offset="1" stop-color="white" stop-opacity="0.71"></stop>
</linearGradient>
<radialGradient id="paint2_radial_39_11891" cx="0" cy="0" r="1" gradientUnits="userSpaceOnUse" gradientTransform="translate(18.3734 22.9107) rotate(-37.05) scale(2.28032 3.0153)">
<stop offset="0.19" stop-color="#911771"></stop>
<stop offset="1" stop-color="#0E003F"></stop>
</radialGradient>
<linearGradient id="paint3_linear_39_11891" x1="22.0328" y1="17.8623" x2="20.1636" y2="19.8283" gradientUnits="userSpaceOnUse">
<stop stop-color="white" stop-opacity="0"></stop>
<stop offset="1" stop-color="white" stop-opacity="0.75"></stop>
</linearGradient>
<linearGradient id="paint4_linear_39_11891" x1="1.36719" y1="18.517" x2="13.7776" y2="20.4911" gradientUnits="userSpaceOnUse">
<stop stop-color="#FFCD5E"></stop>
<stop offset="0.51" stop-color="#EB2F3E"></stop>
<stop offset="1" stop-color="#8845B8"></stop>
</linearGradient>
<linearGradient id="paint5_linear_39_11891" x1="6.94762" y1="5.33818" x2="14.3927" y2="14.6472" gradientUnits="userSpaceOnUse">
<stop stop-color="#FFCD5E"></stop>
<stop offset="0.51" stop-color="#EB2F3E"></stop>
<stop offset="1" stop-color="#8845B8"></stop>
</linearGradient>
<linearGradient id="paint6_linear_39_11891" x1="22.9502" y1="1.13675" x2="18.6476" y2="13.7643" gradientUnits="userSpaceOnUse">
<stop stop-color="#FFCD5E"></stop>
<stop offset="0.51" stop-color="#EB2F3E"></stop>
<stop offset="1" stop-color="#8845B8"></stop>
</linearGradient>
<clipPath id="clip0_39_11891">
<rect width="24.8046" height="25.5385" fill="white"></rect>
</clipPath>
</defs>
</svg></svg></g></svg></g></svg>